<svg width="32" height="32" viewBox="0 0 32 32" fill="none" xmlns="http://www.w3.org/2000/svg">
<path d="M26.6667 6.66669H22.6667C22.313 6.66669 21.9739 6.80716 21.7239 7.05721C21.4738 7.30726 21.3333 7.6464 21.3333 8.00002C21.3333 8.35364 21.4738 8.69278 21.7239 8.94283C21.9739 9.19288 22.313 9.33335 22.6667 9.33335H25.3333V12H6.66667V9.33335H17.3333C17.687 9.33335 18.0261 9.19288 18.2761 8.94283C18.5262 8.69278 18.6667 8.35364 18.6667 8.00002C18.6667 7.6464 18.5262 7.30726 18.2761 7.05721C18.0261 6.80716 17.687 6.66669 17.3333 6.66669H5.33333C4.97971 6.66669 4.64057 6.80716 4.39052 7.05721C4.14048 7.30726 4 7.6464 4 8.00002V24C4 24.3536 4.14048 24.6928 4.39052 24.9428C4.64057 25.1929 4.97971 25.3334 5.33333 25.3334H26.6667C27.0203 25.3334 27.3594 25.1929 27.6095 24.9428C27.8595 24.6928 28 24.3536 28 24V8.00002C28 7.6464 27.8595 7.30726 27.6095 7.05721C27.3594 6.80716 27.0203 6.66669 26.6667 6.66669ZM25.3333 22.6667H6.66667V14.6667H25.3333V22.6667Z" fill="#5149E4"/>
<path d="M14.6667 21.3334H22.6667C23.0203 21.3334 23.3594 21.1929 23.6095 20.9428C23.8595 20.6928 24 20.3536 24 20C24 19.6464 23.8595 19.3073 23.6095 19.0572C23.3594 18.8072 23.0203 18.6667 22.6667 18.6667H14.6667C14.313 18.6667 13.9739 18.8072 13.7239 19.0572C13.4738 19.3073 13.3333 19.6464 13.3333 20C13.3333 20.3536 13.4738 20.6928 13.7239 20.9428C13.9739 21.1929 14.313 21.3334 14.6667 21.3334V21.3334Z" fill="#5149E4"/>
</svg>
