<svg width="24" height="24" viewBox="0 0 24 24" fill="none" xmlns="http://www.w3.org/2000/svg">
<path d="M8 0H2.66667C1.95942 0 1.28115 0.280951 0.781048 0.781048C0.280951 1.28115 0 1.95942 0 2.66667V8C0 8.70724 0.280951 9.38552 0.781048 9.88562C1.28115 10.3857 1.95942 10.6667 2.66667 10.6667H8C8.70724 10.6667 9.38552 10.3857 9.88562 9.88562C10.3857 9.38552 10.6667 8.70724 10.6667 8V2.66667C10.6667 1.95942 10.3857 1.28115 9.88562 0.781048C9.38552 0.280951 8.70724 0 8 0ZM2.66667 8V2.66667H8V8H2.66667ZM21.3333 0H16C15.2928 0 14.6145 0.280951 14.1144 0.781048C13.6143 1.28115 13.3333 1.95942 13.3333 2.66667V8C13.3333 8.70724 13.6143 9.38552 14.1144 9.88562C14.6145 10.3857 15.2928 10.6667 16 10.6667H21.3333C22.0406 10.6667 22.7189 10.3857 23.219 9.88562C23.719 9.38552 24 8.70724 24 8V2.66667C24 1.95942 23.719 1.28115 23.219 0.781048C22.7189 0.280951 22.0406 0 21.3333 0ZM16 8V2.66667H21.3333V8H16ZM8 13.3333H2.66667C1.95942 13.3333 1.28115 13.6143 0.781048 14.1144C0.280951 14.6145 0 15.2928 0 16V21.3333C0 22.0406 0.280951 22.7189 0.781048 23.219C1.28115 23.719 1.95942 24 2.66667 24H8C8.70724 24 9.38552 23.719 9.88562 23.219C10.3857 22.7189 10.6667 22.0406 10.6667 21.3333V16C10.6667 15.2928 10.3857 14.6145 9.88562 14.1144C9.38552 13.6143 8.70724 13.3333 8 13.3333ZM2.66667 21.3333V16H8V21.3333H2.66667ZM21.3333 13.3333H16C15.2928 13.3333 14.6145 13.6143 14.1144 14.1144C13.6143 14.6145 13.3333 15.2928 13.3333 16V21.3333C13.3333 22.0406 13.6143 22.7189 14.1144 23.219C14.6145 23.719 15.2928 24 16 24H21.3333C22.0406 24 22.7189 23.719 23.219 23.219C23.719 22.7189 24 22.0406 24 21.3333V16C24 15.2928 23.719 14.6145 23.219 14.1144C22.7189 13.6143 22.0406 13.3333 21.3333 13.3333ZM16 21.3333V16H21.3333V21.3333H16Z" fill="#5149E4"/>
</svg>
