<svg width="16" height="16" viewBox="0 0 16 16" fill="none" xmlns="http://www.w3.org/2000/svg">
<path d="M4.64007 15.6799H11.3601C11.8913 15.6799 12.3201 15.2511 12.3201 14.7199C12.3201 14.1887 11.8913 13.7599 11.3601 13.7599H4.64007C4.10887 13.7599 3.68007 14.1887 3.68007 14.7199C3.68007 15.2511 4.10887 15.6799 4.64007 15.6799ZM14.7201 0.319946H1.28007C0.748868 0.319946 0.320068 0.748746 0.320068 1.27995C0.320068 1.81115 0.748868 2.23995 1.28007 2.23995H14.7201C15.2513 2.23995 15.6801 1.81115 15.6801 1.27995C15.6801 0.748746 15.2513 0.319946 14.7201 0.319946ZM12.6785 6.71995C13.2097 6.71995 13.6385 6.29115 13.6385 5.75995C13.6385 5.22875 13.2097 4.79995 12.6785 4.79995H3.32167C2.79047 4.79995 2.36167 5.22875 2.36167 5.75995C2.36167 6.29115 2.79047 6.71995 3.32167 6.71995H12.6785ZM14.7201 9.27995H1.28007C0.748868 9.27995 0.320068 9.70875 0.320068 10.2399C0.320068 10.7711 0.748868 11.1999 1.28007 11.1999H14.7201C15.2513 11.1999 15.6801 10.7711 15.6801 10.2399C15.6801 9.70875 15.2513 9.27995 14.7201 9.27995Z" fill="#8A96B1"/>
</svg>
