<svg width="16" height="16" viewBox="0 0 16 16" fill="none" xmlns="http://www.w3.org/2000/svg">
<path d="M8.00007 2.23995H14.7201C15.2513 2.23995 15.6801 1.81115 15.6801 1.27995C15.6801 0.748746 15.2513 0.319946 14.7201 0.319946H8.00007C7.46887 0.319946 7.04007 0.748746 7.04007 1.27995C7.04007 1.81115 7.46887 2.23995 8.00007 2.23995ZM14.7201 13.7599H1.28007C0.748868 13.7599 0.320068 14.1887 0.320068 14.7199C0.320068 15.2511 0.748868 15.6799 1.28007 15.6799H14.7201C15.2513 15.6799 15.6801 15.2511 15.6801 14.7199C15.6801 14.1887 15.2513 13.7599 14.7201 13.7599ZM14.7201 9.27995H4.58887C4.05767 9.27995 3.62887 9.70875 3.62887 10.2399C3.62887 10.7711 4.05767 11.1999 4.58887 11.1999H14.7201C15.2513 11.1999 15.6801 10.7711 15.6801 10.2399C15.6801 9.70875 15.2513 9.27995 14.7201 9.27995ZM14.7201 4.79995H1.28007C0.748868 4.79995 0.320068 5.22875 0.320068 5.75995C0.320068 6.29115 0.748868 6.71995 1.28007 6.71995H14.7201C15.2513 6.71995 15.6801 6.29115 15.6801 5.75995C15.6801 5.22875 15.2513 4.79995 14.7201 4.79995Z" fill="#8A96B1"/>
</svg>
