<svg width="16" height="16" viewBox="0 0 16 16" fill="none" xmlns="http://www.w3.org/2000/svg">
<path d="M1.28007 2.23995H8.00007C8.53127 2.23995 8.96007 1.81115 8.96007 1.27995C8.96007 0.748746 8.53127 0.319946 8.00007 0.319946H1.28007C0.748868 0.319946 0.320068 0.748746 0.320068 1.27995C0.320068 1.81115 0.748868 2.23995 1.28007 2.23995ZM1.28007 15.6799H14.7201C15.2513 15.6799 15.6801 15.2511 15.6801 14.7199C15.6801 14.1887 15.2513 13.7599 14.7201 13.7599H1.28007C0.748868 13.7599 0.320068 14.1887 0.320068 14.7199C0.320068 15.2511 0.748868 15.6799 1.28007 15.6799ZM1.28007 11.1999H11.4113C11.9425 11.1999 12.3713 10.7711 12.3713 10.2399C12.3713 9.70875 11.9425 9.27995 11.4113 9.27995H1.28007C0.748868 9.27995 0.320068 9.70875 0.320068 10.2399C0.320068 10.7711 0.748868 11.1999 1.28007 11.1999ZM1.28007 6.71995H14.7201C15.2513 6.71995 15.6801 6.29115 15.6801 5.75995C15.6801 5.22875 15.2513 4.79995 14.7201 4.79995H1.28007C0.748868 4.79995 0.320068 5.22875 0.320068 5.75995C0.320068 6.29115 0.748868 6.71995 1.28007 6.71995Z" fill="#8A96B1"/>
</svg>
