<svg width="12" height="16" viewBox="0 0 12 16" fill="none" xmlns="http://www.w3.org/2000/svg">
<path d="M10.326 8C10.8488 7.5787 11.2705 7.04563 11.5602 6.43995C11.8498 5.83428 12.0001 5.17139 12 4.5C12 2.019 9.981 0 7.5 0H0V2H1V14H0V16H7.5C9.981 16 12 13.981 12 11.5C12.0001 10.8286 11.8498 10.1657 11.5602 9.56005C11.2705 8.95437 10.8488 8.4213 10.326 8ZM7.5 14H3V9H7.5C8.878 9 10 10.122 10 11.5C10 12.878 8.878 14 7.5 14ZM7.5 7H3V2H7.5C8.878 2 10 3.122 10 4.5C10 5.878 8.878 7 7.5 7Z" fill="#5149E4"/>
</svg>
