<svg width="15" height="19" viewBox="0 0 15 19" fill="none" xmlns="http://www.w3.org/2000/svg">
<path d="M12.3043 8.99116C12.7114 8.38982 12.9471 7.68893 12.9859 6.96375C13.0248 6.23858 12.8654 5.51651 12.5249 4.8751C12.1843 4.23368 11.6755 3.69714 11.053 3.32309C10.4305 2.94904 9.71791 2.75162 8.9917 2.75201V1.75201C8.9917 1.4868 8.88634 1.23244 8.69881 1.04491C8.51127 0.857371 8.25692 0.752014 7.9917 0.752014C7.72648 0.752014 7.47213 0.857371 7.28459 1.04491C7.09706 1.23244 6.9917 1.4868 6.9917 1.75201V2.75201H4.9917V1.75201C4.9917 1.4868 4.88634 1.23244 4.69881 1.04491C4.51127 0.857371 4.25692 0.752014 3.9917 0.752014C3.72648 0.752014 3.47213 0.857371 3.28459 1.04491C3.09706 1.23244 2.9917 1.4868 2.9917 1.75201V2.75201H1.9917C1.72648 2.75201 1.47213 2.85737 1.28459 3.04491C1.09706 3.23244 0.991699 3.4868 0.991699 3.75201C0.991699 4.01723 1.09706 4.27158 1.28459 4.45912C1.47213 4.64666 1.72648 4.75201 1.9917 4.75201H2.9917V14.752H1.9917C1.72648 14.752 1.47213 14.8574 1.28459 15.0449C1.09706 15.2324 0.991699 15.4868 0.991699 15.752C0.991699 16.0172 1.09706 16.2716 1.28459 16.4591C1.47213 16.6467 1.72648 16.752 1.9917 16.752H2.9917V17.752C2.9917 18.0172 3.09706 18.2716 3.28459 18.4591C3.47213 18.6467 3.72648 18.752 3.9917 18.752C4.25692 18.752 4.51127 18.6467 4.69881 18.4591C4.88634 18.2716 4.9917 18.0172 4.9917 17.752V16.752H6.9917V17.752C6.9917 18.0172 7.09706 18.2716 7.28459 18.4591C7.47213 18.6467 7.72648 18.752 7.9917 18.752C8.25692 18.752 8.51127 18.6467 8.69881 18.4591C8.88634 18.2716 8.9917 18.0172 8.9917 17.752V16.752H10.9917C11.9362 16.7545 12.851 16.4217 13.5733 15.813C14.2955 15.2042 14.7783 14.359 14.9358 13.4277C15.0933 12.4964 14.9153 11.5393 14.4334 10.727C13.9516 9.91458 13.1971 9.29951 12.3043 8.99121V8.99116ZM4.9917 4.75201H8.9917C9.52213 4.75201 10.0308 4.96273 10.4059 5.3378C10.781 5.71287 10.9917 6.22158 10.9917 6.75201C10.9917 7.28245 10.781 7.79115 10.4059 8.16623C10.0308 8.5413 9.52213 8.75201 8.9917 8.75201H4.9917V4.75201ZM10.9917 14.752H4.9917V10.752H10.9917C11.5221 10.752 12.0308 10.9627 12.4059 11.3378C12.781 11.7129 12.9917 12.2216 12.9917 12.752C12.9917 13.2824 12.781 13.7912 12.4059 14.1662C12.0308 14.5413 11.5221 14.752 10.9917 14.752Z" fill="white"/>
</svg>
