<svg width="24" height="24" viewBox="0 0 24 24" fill="none" xmlns="http://www.w3.org/2000/svg">
<path d="M1.33333 24C1.16446 24.0004 0.997051 23.9687 0.840001 23.9067C0.591914 23.8079 0.37921 23.6368 0.229442 23.4158C0.0796736 23.1947 -0.000257884 22.9337 6.25062e-07 22.6667V1.33333C6.25062e-07 0.979711 0.140476 0.640573 0.390525 0.390524C0.640573 0.140476 0.979712 0 1.33333 0H22.6667C23.0203 0 23.3594 0.140476 23.6095 0.390524C23.8595 0.640573 24 0.979711 24 1.33333V5.33333C24 5.68696 23.8595 6.02609 23.6095 6.27614C23.3594 6.52619 23.0203 6.66667 22.6667 6.66667C22.313 6.66667 21.9739 6.52619 21.7239 6.27614C21.4738 6.02609 21.3333 5.68696 21.3333 5.33333V2.66667H2.66667V19.3067L5.33333 16.4267C5.46219 16.2876 5.61923 16.1776 5.79397 16.104C5.96871 16.0304 6.15714 15.995 6.34667 16H21.3333V10.6667C21.3333 10.313 21.4738 9.97391 21.7239 9.72386C21.9739 9.47381 22.313 9.33333 22.6667 9.33333C23.0203 9.33333 23.3594 9.47381 23.6095 9.72386C23.8595 9.97391 24 10.313 24 10.6667V17.3333C24 17.687 23.8595 18.0261 23.6095 18.2761C23.3594 18.5262 23.0203 18.6667 22.6667 18.6667H6.92L2.30667 23.5733C2.18235 23.7074 2.03179 23.8144 1.86435 23.8878C1.69691 23.9612 1.51616 23.9994 1.33333 24Z" fill="#8A96B1"/>
<path d="M17.333 8H6.66634C6.31272 8 5.97358 7.85952 5.72353 7.60947C5.47348 7.35942 5.33301 7.02028 5.33301 6.66666C5.33301 6.31304 5.47348 5.9739 5.72353 5.72385C5.97358 5.4738 6.31272 5.33333 6.66634 5.33333H17.333C17.6866 5.33333 18.0258 5.4738 18.2758 5.72385C18.5259 5.9739 18.6663 6.31304 18.6663 6.66666C18.6663 7.02028 18.5259 7.35942 18.2758 7.60947C18.0258 7.85952 17.6866 8 17.333 8ZM17.333 13.3333H6.66634C6.31272 13.3333 5.97358 13.1929 5.72353 12.9428C5.47348 12.6928 5.33301 12.3536 5.33301 12C5.33301 11.6464 5.47348 11.3072 5.72353 11.0572C5.97358 10.8071 6.31272 10.6667 6.66634 10.6667H17.333C17.6866 10.6667 18.0258 10.8071 18.2758 11.0572C18.5259 11.3072 18.6663 11.6464 18.6663 12C18.6663 12.3536 18.5259 12.6928 18.2758 12.9428C18.0258 13.1929 17.6866 13.3333 17.333 13.3333Z" fill="#8A96B1"/>
</svg>
