<svg width="32" height="32" viewBox="0 0 32 32" fill="none" xmlns="http://www.w3.org/2000/svg">
<path d="M16 28C9.4 28 4 22.6 4 16C4 9.4 9.4 4 16 4C16.4 4 16.7 4 17.1 4.1C17.8 4.2 18.3 4.8 18.2 5.5C18.1 6.2 17.5 6.7 16.8 6.6C16.5 6.6 16.2 6.6 15.9 6.6C10.7 6.6 6.4 10.9 6.4 16.1C6.4 21.3 10.7 25.6 15.9 25.6C21.1 25.6 25.4 21.3 25.4 16.1C25.4 15.7 25.4 15.4 25.3 15C25.2 14.3 25.7 13.7 26.4 13.6C27.1 13.5 27.7 14 27.8 14.7C27.8 15.1 27.9 15.6 27.9 16.1C28 22.6 22.6 28 16 28Z" fill="white"/>
<path d="M18.8 20C18.5 20 18.2 19.9 17.9 19.6L15.1 16.8C14.9 16.6 14.7 16.2 14.7 15.9V9.2C14.7 8.5 15.3 7.9 16 7.9C16.7 7.9 17.3 8.5 17.3 9.2V15.5L19.7 17.9C20.2 18.4 20.2 19.2 19.7 19.7C19.4 19.9 19.1 20 18.8 20ZM20.6 7.6C19.9 7.6 19.3 7 19.3 6.3C19.3 5.6 19.9 5 20.6 5C21.3 5 21.9 5.6 21.9 6.3C21.9 7 21.3 7.6 20.6 7.6ZM23.5 9.5C22.8 9.5 22.2 8.9 22.2 8.2C22.2 7.5 22.8 6.9 23.4 6.9C24.1 6.9 24.7 7.5 24.7 8.2C24.8 9 24.2 9.5 23.5 9.5ZM25.7 12.6C25 12.6 24.4 12 24.4 11.3C24.4 10.6 25 10 25.6 10C26.3 10 26.9 10.6 26.9 11.3C26.9 12 26.4 12.6 25.7 12.6Z" fill="white"/>
</svg>
