<svg width="24" height="24" viewBox="0 0 24 24" fill="none" xmlns="http://www.w3.org/2000/svg">
<path d="M8.26369 21.7499C7.87519 21.7499 7.49119 21.6007 7.20019 21.3097L2.69044 16.7999C2.10319 16.2134 2.10319 15.2609 2.69044 14.6744C3.27769 14.0872 4.22869 14.0872 4.81594 14.6744L8.44219 18.3007L19.3959 10.7819C20.0799 10.3124 21.0159 10.4864 21.4854 11.1704C21.9557 11.8552 21.7817 12.7904 21.0969 13.2607L9.11419 21.4859C8.85544 21.6629 8.55919 21.7499 8.26369 21.7499Z" fill="#5149E4"/>
<path d="M8.26369 13.482C7.87519 13.482 7.49119 13.3327 7.20019 13.0417L2.69044 8.53197C2.10319 7.94472 2.10319 6.99297 2.69044 6.40647C3.27769 5.81922 4.22869 5.81922 4.81594 6.40647L8.44219 10.0327L19.3959 2.51397C20.0799 2.04447 21.0159 2.21847 21.4854 2.90247C21.9557 3.58722 21.7817 4.52247 21.0969 4.99272L9.11419 13.2187C8.85544 13.3957 8.55919 13.482 8.26369 13.482Z" fill="#5149E4"/>
</svg>
