<svg width="25" height="24" viewBox="0 0 25 24" fill="none" xmlns="http://www.w3.org/2000/svg">
<path d="M19.0039 18H5.00391C4.45162 18 4.00391 18.4477 4.00391 19C4.00391 19.5523 4.45162 20 5.00391 20H19.0039C19.5562 20 20.0039 19.5523 20.0039 19C20.0039 18.4477 19.5562 18 19.0039 18Z" fill="#8A96B1"/>
<path d="M4.00391 17V19C4.00391 19.5523 4.45162 20 5.00391 20C5.55619 20 6.00391 19.5523 6.00391 19V17C6.00391 16.4477 5.55619 16 5.00391 16C4.45162 16 4.00391 16.4477 4.00391 17Z" fill="#8A96B1"/>
<path d="M18.0039 17V19C18.0039 19.5523 18.4516 20 19.0039 20C19.5562 20 20.0039 19.5523 20.0039 19V17C20.0039 16.4477 19.5562 16 19.0039 16C18.4516 16 18.0039 16.4477 18.0039 17Z" fill="#8A96B1"/>
<path d="M12.0043 15C11.797 15.0016 11.5943 14.9387 11.4243 14.82L7.42435 12C7.20876 11.8471 7.06249 11.615 7.01751 11.3545C6.97254 11.0941 7.03252 10.8264 7.18435 10.61C7.26013 10.5019 7.35659 10.4098 7.46815 10.3391C7.57971 10.2684 7.70417 10.2206 7.83433 10.1982C7.96449 10.1759 8.09779 10.1796 8.22652 10.2091C8.35525 10.2386 8.47686 10.2933 8.58435 10.37L12.0043 12.76L15.4043 10.2C15.6165 10.0409 15.8832 9.97255 16.1458 10.0101C16.4083 10.0476 16.6452 10.1878 16.8043 10.4C16.9635 10.6122 17.0318 10.8789 16.9943 11.1414C16.9568 11.404 16.8165 11.6409 16.6043 11.8L12.6043 14.8C12.4312 14.9298 12.2207 15 12.0043 15Z" fill="#8A96B1"/>
<path d="M12.0039 13C11.7387 13 11.4843 12.8946 11.2968 12.7071C11.1093 12.5196 11.0039 12.2652 11.0039 12V4C11.0039 3.73478 11.1093 3.48043 11.2968 3.29289C11.4843 3.10536 11.7387 3 12.0039 3C12.2691 3 12.5235 3.10536 12.711 3.29289C12.8985 3.48043 13.0039 3.73478 13.0039 4V12C13.0039 12.2652 12.8985 12.5196 12.711 12.7071C12.5235 12.8946 12.2691 13 12.0039 13Z" fill="#8A96B1"/>
</svg>
