<svg width="14" height="22" viewBox="0 0 14 22" fill="none" xmlns="http://www.w3.org/2000/svg">
<path d="M13.4 11.091C13.4089 11.0192 13.4089 10.9467 13.4 10.875C13.4083 10.8059 13.4083 10.736 13.4 10.667C13.4013 10.6403 13.4013 10.6136 13.4 10.587C13.3873 10.5508 13.3713 10.516 13.352 10.483L7.75197 0.882952C7.7292 0.83637 7.69642 0.795393 7.65597 0.762952C7.58099 0.680457 7.4896 0.614545 7.38765 0.569441C7.2857 0.524337 7.17545 0.501038 7.06397 0.501038C6.95249 0.501038 6.84225 0.524337 6.7403 0.569441C6.63835 0.614545 6.54696 0.680457 6.47197 0.762952C6.43153 0.795393 6.39875 0.83637 6.37597 0.882952L0.775974 10.483C0.756694 10.516 0.740621 10.5508 0.727974 10.587C0.72664 10.6136 0.72664 10.6403 0.727974 10.667C0.675761 10.7299 0.632672 10.8 0.599974 10.875C0.591675 10.944 0.591675 11.0139 0.599974 11.083C0.59864 11.1096 0.59864 11.1363 0.599974 11.163C0.612621 11.1991 0.628694 11.2339 0.647974 11.267L6.24797 20.867C6.31881 20.9863 6.41949 21.0852 6.54011 21.1539C6.66074 21.2226 6.79716 21.2587 6.93597 21.2587C7.07479 21.2587 7.21121 21.2226 7.33184 21.1539C7.45246 21.0852 7.55314 20.9863 7.62397 20.867L13.224 11.267C13.2433 11.2339 13.2593 11.1991 13.272 11.163C13.3168 11.1429 13.3596 11.1188 13.4 11.091ZM3.43197 10.875L6.19997 9.69095V12.091L3.43197 10.875ZM6.19997 7.94695L3.31197 9.18695L6.19997 4.23495V7.94695ZM7.79997 9.69095L10.568 10.875L7.79997 12.059V9.69095ZM7.79997 7.94695V4.23495L10.688 9.18695L7.79997 7.94695ZM6.99997 18.875L3.31197 12.547L6.68797 13.995C6.78668 14.0368 6.89278 14.0583 6.99997 14.0583C7.10717 14.0583 7.21327 14.0368 7.31197 13.995L10.688 12.547L6.99997 18.875Z" fill="white"/>
</svg>
