<svg width="32" height="32" viewBox="0 0 32 32" fill="none" xmlns="http://www.w3.org/2000/svg">
<path d="M25.3333 0H6.66667C4.89921 0.00211714 3.20474 0.705176 1.95496 1.95496C0.705176 3.20474 0.00211714 4.89921 0 6.66667L0 25.3333C0.000376413 27.0805 0.68925 28.7572 1.91733 30C1.93067 30.0147 1.936 30.0347 1.95067 30.0493C1.96533 30.064 1.98533 30.0693 2 30.0827C3.24279 31.3108 4.91947 31.9996 6.66667 32H25.3333C27.1008 31.9979 28.7953 31.2948 30.045 30.045C31.2948 28.7953 31.9979 27.1008 32 25.3333V6.66667C31.9979 4.89921 31.2948 3.20474 30.045 1.95496C28.7953 0.705176 27.1008 0.00211714 25.3333 0V0ZM2.66667 6.66667C2.66667 5.6058 3.08809 4.58839 3.83824 3.83824C4.58839 3.08809 5.6058 2.66667 6.66667 2.66667H25.3333C26.3942 2.66667 27.4116 3.08809 28.1618 3.83824C28.9119 4.58839 29.3333 5.6058 29.3333 6.66667V20.7813L23.6093 15.0573C23.3593 14.8074 23.0202 14.667 22.6667 14.667C22.3131 14.667 21.974 14.8074 21.724 15.0573L15.3333 21.448L12.9427 19.0573C12.6926 18.8074 12.3536 18.667 12 18.667C11.6464 18.667 11.3074 18.8074 11.0573 19.0573L3.06667 27.0467C2.80572 26.5131 2.66897 25.9273 2.66667 25.3333V6.66667ZM25.3333 29.3333H6.66667C6.07268 29.331 5.48693 29.1943 4.95333 28.9333L12 21.8853L16.3907 26.276C16.6429 26.5218 16.9811 26.6594 17.3333 26.6594C17.6855 26.6594 18.0238 26.5218 18.276 26.276C18.526 26.026 18.6664 25.6869 18.6664 25.3333C18.6664 24.9798 18.526 24.6407 18.276 24.3907L17.2187 23.3333L22.6667 17.8853L29.3333 24.552V25.3333C29.3333 26.3942 28.9119 27.4116 28.1618 28.1618C27.4116 28.9119 26.3942 29.3333 25.3333 29.3333Z" fill="#8A96B1"/>
</svg>
