<svg width="28" height="28" viewBox="0 0 28 28" fill="none" xmlns="http://www.w3.org/2000/svg">
<path d="M12.6667 18H15.3334V20.6667H12.6667V18ZM12.6667 7.33334V15.3333H15.3334V7.33334H12.6667ZM14.0001 0.666672C6.65207 0.666672 0.666748 6.652 0.666748 14C0.666748 21.348 6.65207 27.3333 14.0001 27.3333C21.3481 27.3333 27.3334 21.348 27.3334 14C27.3334 6.652 21.3481 0.666672 14.0001 0.666672ZM14.0001 3.33334C19.9069 3.33334 24.6667 8.09318 24.6667 14C24.6667 19.9068 19.9069 24.6667 14.0001 24.6667C8.09326 24.6667 3.33341 19.9068 3.33341 14C3.33341 8.09318 8.09326 3.33334 14.0001 3.33334Z" fill="#8A96B1"/>
</svg>
