<svg width="18" height="19" viewBox="0 0 18 19" fill="none" xmlns="http://www.w3.org/2000/svg">
<path d="M14.83 12.36C15.3195 11.9759 15.6774 11.4491 15.8542 10.8526C16.0311 10.2561 16.0181 9.61937 15.8171 9.03057C15.616 8.44178 15.2369 7.93005 14.7322 7.56624C14.2275 7.20243 13.6222 7.00454 13 6.99997C12.7082 7.00578 12.4186 7.05292 12.14 7.13997C11.7495 6.81187 11.3111 6.54546 10.84 6.34997C11.3352 5.96713 11.6982 5.43902 11.8782 4.83958C12.0582 4.24014 12.0463 3.5994 11.844 3.0071C11.6417 2.41479 11.2593 1.90058 10.7502 1.53648C10.2411 1.17238 9.63089 0.976624 9.005 0.976624C8.37911 0.976624 7.76889 1.17238 7.2598 1.53648C6.75072 1.90058 6.36825 2.41479 6.16598 3.0071C5.96371 3.5994 5.95176 4.24014 6.13179 4.83958C6.31183 5.43902 6.67485 5.96713 7.17 6.34997C6.6929 6.53512 6.25013 6.79876 5.86 7.12997C5.41245 6.99605 4.93982 6.9685 4.47975 7.04952C4.01967 7.13053 3.58488 7.31786 3.20999 7.5966C2.83511 7.87533 2.5305 8.23776 2.32043 8.65502C2.11036 9.07227 2.00064 9.53282 2 9.99997C2.00262 10.4564 2.10938 10.9063 2.31213 11.3152C2.51488 11.7242 2.80829 12.0815 3.17 12.36C2.23751 12.7267 1.43673 13.3651 0.871483 14.1925C0.306241 15.0199 0.00262145 15.998 0 17V18C0 18.2652 0.105357 18.5195 0.292893 18.7071C0.48043 18.8946 0.734784 19 1 19H12C12.2652 19 12.5196 18.8946 12.7071 18.7071C12.8946 18.5195 13 18.2652 13 18C13 17.7348 12.8946 17.4804 12.7071 17.2929C12.5196 17.1053 12.2652 17 12 17H10C10 16.2043 10.3161 15.4413 10.8787 14.8786C11.4413 14.316 12.2044 14 13 14C13.7956 14 14.5587 14.316 15.1213 14.8786C15.6839 15.4413 16 16.2043 16 17C15.7348 17 15.4804 17.1053 15.2929 17.2929C15.1054 17.4804 15 17.7348 15 18C15 18.2652 15.1054 18.5195 15.2929 18.7071C15.4804 18.8946 15.7348 19 16 19H17C17.2652 19 17.5196 18.8946 17.7071 18.7071C17.8946 18.5195 18 18.2652 18 18V17C17.9974 15.998 17.6938 15.0199 17.1285 14.1925C16.5633 13.3651 15.7625 12.7267 14.83 12.36ZM14 9.99997C14 10.1978 13.9414 10.3911 13.8315 10.5555C13.7216 10.72 13.5654 10.8482 13.3827 10.9239C13.2 10.9995 12.9989 11.0193 12.8049 10.9808C12.6109 10.9422 12.4327 10.8469 12.2929 10.7071C12.153 10.5672 12.0578 10.389 12.0192 10.1951C11.9806 10.0011 12.0004 9.80001 12.0761 9.61729C12.1518 9.43456 12.28 9.27838 12.4444 9.1685C12.6089 9.05862 12.8022 8.99997 13 8.99997C13.2652 8.99997 13.5196 9.10533 13.7071 9.29286C13.8946 9.4804 14 9.73475 14 9.99997ZM9 2.99997C9.19778 2.99997 9.39112 3.05862 9.55557 3.1685C9.72002 3.27838 9.84819 3.43456 9.92388 3.61729C9.99957 3.80001 10.0194 4.00108 9.98079 4.19506C9.9422 4.38904 9.84696 4.56722 9.70711 4.70708C9.56725 4.84693 9.38907 4.94217 9.19509 4.98076C9.00111 5.01934 8.80004 4.99954 8.61732 4.92385C8.43459 4.84816 8.27841 4.71999 8.16853 4.55554C8.05865 4.39109 8 4.19775 8 3.99997C8 3.73475 8.10536 3.4804 8.29289 3.29286C8.48043 3.10533 8.73478 2.99997 9 2.99997ZM5 8.99997C5.19778 8.99997 5.39112 9.05862 5.55557 9.1685C5.72002 9.27838 5.84819 9.43456 5.92388 9.61729C5.99957 9.80001 6.01937 10.0011 5.98079 10.1951C5.9422 10.389 5.84696 10.5672 5.70711 10.7071C5.56725 10.8469 5.38907 10.9422 5.19509 10.9808C5.00111 11.0193 4.80004 10.9995 4.61732 10.9239C4.43459 10.8482 4.27841 10.72 4.16853 10.5555C4.05865 10.3911 4 10.1978 4 9.99997C4 9.73475 4.10536 9.4804 4.29289 9.29286C4.48043 9.10533 4.73478 8.99997 5 8.99997ZM5 14C5.79565 14 6.55871 14.316 7.12132 14.8786C7.68393 15.4413 8 16.2043 8 17H2C2 16.2043 2.31607 15.4413 2.87868 14.8786C3.44129 14.316 4.20435 14 5 14ZM9 14C8.44616 13.2522 7.69464 12.6739 6.83 12.33C7.4232 11.8811 7.82494 11.2247 7.95474 10.4923C8.08455 9.7598 7.93284 9.00533 7.53 8.37997C7.98231 8.13836 8.4872 8.01197 9 8.01197C9.5128 8.01197 10.0177 8.13836 10.47 8.37997C10.0672 9.00533 9.91545 9.7598 10.0453 10.4923C10.1751 11.2247 10.5768 11.8811 11.17 12.33C10.3054 12.6739 9.55384 13.2522 9 14Z" fill="#8A96B1"/>
</svg>
