<svg width="18" height="20" viewBox="0 0 18 20" fill="none" xmlns="http://www.w3.org/2000/svg">
<path d="M16.0797 10.42L9.89967 16.61C9.08949 17.33 8.03482 17.7133 6.95139 17.6814C5.86797 17.6495 4.83767 17.2049 4.07124 16.4385C3.30482 15.672 2.86018 14.6417 2.82829 13.5583C2.7964 12.4749 3.17966 11.4202 3.89967 10.61L11.8997 2.61003C12.3773 2.15633 13.0109 1.90336 13.6697 1.90336C14.3284 1.90336 14.962 2.15633 15.4397 2.61003C15.905 3.08162 16.1659 3.7175 16.1659 4.38003C16.1659 5.04256 15.905 5.67844 15.4397 6.15003L8.53967 13.04C8.47138 13.1136 8.38928 13.1729 8.29805 13.2147C8.20682 13.2566 8.10824 13.28 8.00796 13.2837C7.90767 13.2874 7.80763 13.2713 7.71356 13.2364C7.61948 13.2015 7.53321 13.1483 7.45967 13.08C7.38613 13.0117 7.32676 12.9296 7.28495 12.8384C7.24314 12.7472 7.21971 12.6486 7.216 12.5483C7.21228 12.448 7.22836 12.348 7.2633 12.2539C7.29825 12.1598 7.35138 12.0736 7.41967 12L12.5497 6.88003C12.738 6.69173 12.8438 6.43633 12.8438 6.17003C12.8438 5.90373 12.738 5.64833 12.5497 5.46003C12.3614 5.27173 12.106 5.16594 11.8397 5.16594C11.5734 5.16594 11.318 5.27173 11.1297 5.46003L5.99967 10.6C5.74298 10.8547 5.53924 11.1577 5.4002 11.4916C5.26117 11.8254 5.18959 12.1834 5.18959 12.545C5.18959 12.9066 5.26117 13.2647 5.4002 13.5985C5.53924 13.9323 5.74298 14.2353 5.99967 14.49C6.52404 14.9895 7.22048 15.2681 7.94467 15.2681C8.66886 15.2681 9.3653 14.9895 9.88967 14.49L16.7797 7.59003C17.5746 6.73698 18.0073 5.6087 17.9867 4.44289C17.9662 3.27709 17.4939 2.16478 16.6694 1.3403C15.8449 0.51582 14.7326 0.0435482 13.5668 0.0229789C12.401 0.00240961 11.2727 0.435149 10.4197 1.23003L2.41967 9.23003C1.34087 10.4249 0.7647 11.9899 0.811205 13.599C0.85771 15.2081 1.5233 16.7373 2.66931 17.8678C3.81532 18.9983 5.35335 19.6431 6.96296 19.6677C8.57256 19.6924 10.1296 19.095 11.3097 18L17.4997 11.82C17.5929 11.7268 17.6669 11.6161 17.7173 11.4943C17.7678 11.3725 17.7938 11.2419 17.7938 11.11C17.7938 10.9782 17.7678 10.8476 17.7173 10.7258C17.6669 10.604 17.5929 10.4933 17.4997 10.4C17.4064 10.3068 17.2957 10.2328 17.1739 10.1824C17.0521 10.1319 16.9215 10.1059 16.7897 10.1059C16.6578 10.1059 16.5272 10.1319 16.4054 10.1824C16.2836 10.2328 16.1729 10.3068 16.0797 10.4V10.42Z" fill="#8A96B1"/>
</svg>
