<svg width="24" height="24" viewBox="0 0 24 24" fill="none" xmlns="http://www.w3.org/2000/svg">
<path d="M22.6669 7.99996H17.3336V1.3333C17.3335 1.1019 17.2733 0.874507 17.1587 0.67346C17.0442 0.472413 16.8793 0.304638 16.6802 0.186629C16.4776 0.0696042 16.2476 0.00799561 16.0136 0.00799561C15.7795 0.00799561 15.5496 0.0696042 15.3469 0.186629L0.680247 8.18663C0.607942 8.2325 0.540876 8.28616 0.480247 8.34663L0.360247 8.43996C0.251881 8.55923 0.161994 8.69406 0.0935808 8.83996C0.0241463 8.99479 -0.00782869 9.1638 0.000247512 9.3333V22.6666C0.000247512 23.0203 0.140723 23.3594 0.390772 23.6094C0.64082 23.8595 0.979959 24 1.33358 24H6.66691C7.02054 24 7.35967 23.8595 7.60972 23.6094C7.85977 23.3594 8.00025 23.0203 8.00025 22.6666C8.00025 22.313 7.85977 21.9739 7.60972 21.7238C7.35967 21.4738 7.02054 21.3333 6.66691 21.3333H2.66691V10.6666H21.3336V12H17.3336C16.2727 12 15.2553 12.4214 14.5052 13.1715C13.755 13.9217 13.3336 14.9391 13.3336 16C13.3336 17.0608 13.755 18.0782 14.5052 18.8284C15.2553 19.5785 16.2727 20 17.3336 20H21.3336V21.3333H12.0002C11.6466 21.3333 11.3075 21.4738 11.0574 21.7238C10.8074 21.9739 10.6669 22.313 10.6669 22.6666C10.6669 23.0203 10.8074 23.3594 11.0574 23.6094C11.3075 23.8595 11.6466 24 12.0002 24H22.6669C23.0205 24 23.3597 23.8595 23.6097 23.6094C23.8598 23.3594 24.0002 23.0203 24.0002 22.6666V9.3333C24.0002 8.97967 23.8598 8.64054 23.6097 8.39049C23.3597 8.14044 23.0205 7.99996 22.6669 7.99996ZM6.56025 7.99996L14.6669 3.5733V7.99996H6.56025ZM17.3336 17.3333C16.98 17.3333 16.6408 17.1928 16.3908 16.9428C16.1407 16.6927 16.0002 16.3536 16.0002 16C16.0002 15.6463 16.1407 15.3072 16.3908 15.0572C16.6408 14.8071 16.98 14.6666 17.3336 14.6666H21.3336V17.3333H17.3336Z" fill="#5149E4"/>
</svg>
