<svg width="28" height="27" viewBox="0 0 28 27" fill="none" xmlns="http://www.w3.org/2000/svg">
<path d="M21.9996 12.68C21.6459 12.68 21.3068 12.8205 21.0567 13.0705C20.8067 13.3206 20.6662 13.6597 20.6662 14.0133V23.3467H17.9996V16.68C17.9996 16.3264 17.8591 15.9872 17.609 15.7372C17.359 15.4871 17.0198 15.3467 16.6662 15.3467H11.3329C10.9793 15.3467 10.6401 15.4871 10.3901 15.7372C10.14 15.9872 9.99955 16.3264 9.99955 16.68V23.3467H7.33289V14.0133C7.33289 13.6597 7.19241 13.3206 6.94236 13.0705C6.69232 12.8205 6.35318 12.68 5.99955 12.68C5.64593 12.68 5.30679 12.8205 5.05675 13.0705C4.8067 13.3206 4.66622 13.6597 4.66622 14.0133V24.68C4.66622 25.0336 4.8067 25.3728 5.05675 25.6228C5.30679 25.8729 5.64593 26.0133 5.99955 26.0133H21.9996C22.3532 26.0133 22.6923 25.8729 22.9424 25.6228C23.1924 25.3728 23.3329 25.0336 23.3329 24.68V14.0133C23.3329 13.6597 23.1924 13.3206 22.9424 13.0705C22.6923 12.8205 22.3532 12.68 21.9996 12.68ZM15.3329 23.3467H12.6662V18.0133H15.3329V23.3467ZM27.1329 13C27.0079 13.1422 26.8541 13.2562 26.6817 13.3344C26.5093 13.4125 26.3222 13.4531 26.1329 13.4533C25.8088 13.4529 25.496 13.3344 25.2529 13.12L13.9996 3.14667L2.74622 13.0667C2.61641 13.1914 2.4627 13.2885 2.29436 13.3521C2.12601 13.4158 1.94652 13.4448 1.76668 13.4372C1.58685 13.4297 1.41041 13.3858 1.248 13.3082C1.08558 13.2307 0.940545 13.121 0.82164 12.9859C0.702734 12.8508 0.612417 12.693 0.556131 12.522C0.499845 12.3511 0.478755 12.1705 0.494134 11.9911C0.509512 11.8118 0.561039 11.6375 0.645611 11.4786C0.730183 11.3197 0.846047 11.1796 0.986222 11.0667L13.1196 0.400005C13.3629 0.186246 13.6757 0.0683594 13.9996 0.0683594C14.3234 0.0683594 14.6362 0.186246 14.8796 0.400005L27.0129 11.0667C27.1521 11.1829 27.2661 11.3263 27.3479 11.488C27.4298 11.6498 27.4778 11.8265 27.489 12.0075C27.5003 12.1885 27.4745 12.3698 27.4133 12.5405C27.352 12.7111 27.2566 12.8675 27.1329 13Z" fill="#5149E4"/>
</svg>
