<svg width="28" height="28" viewBox="0 0 28 28" fill="none" xmlns="http://www.w3.org/2000/svg">
<path d="M18.9514 9.05816C18.8275 8.93319 18.68 8.834 18.5175 8.76631C18.355 8.69862 18.1808 8.66376 18.0047 8.66376C17.8287 8.66376 17.6545 8.69862 17.492 8.76631C17.3295 8.834 17.182 8.93319 17.0581 9.05816L14.0047 12.1248L10.9514 9.05816C10.7003 8.80709 10.3598 8.66604 10.0047 8.66604C9.64968 8.66604 9.30915 8.80709 9.05808 9.05816C8.80701 9.30923 8.66596 9.64976 8.66596 10.0048C8.66596 10.3599 8.80701 10.7004 9.05808 10.9515L12.1247 14.0048L9.05808 17.0582C8.93311 17.1821 8.83391 17.3296 8.76622 17.4921C8.69853 17.6545 8.66368 17.8288 8.66368 18.0048C8.66368 18.1808 8.69853 18.3551 8.76622 18.5176C8.83391 18.6801 8.93311 18.8275 9.05808 18.9515C9.18203 19.0765 9.3295 19.1757 9.49198 19.2434C9.65445 19.311 9.82873 19.3459 10.0047 19.3459C10.1808 19.3459 10.355 19.311 10.5175 19.2434C10.68 19.1757 10.8275 19.0765 10.9514 18.9515L14.0047 15.8848L17.0581 18.9515C17.182 19.0765 17.3295 19.1757 17.492 19.2434C17.6545 19.311 17.8287 19.3459 18.0047 19.3459C18.1808 19.3459 18.355 19.311 18.5175 19.2434C18.68 19.1757 18.8275 19.0765 18.9514 18.9515C19.0764 18.8275 19.1756 18.6801 19.2433 18.5176C19.311 18.3551 19.3458 18.1808 19.3458 18.0048C19.3458 17.8288 19.311 17.6545 19.2433 17.4921C19.1756 17.3296 19.0764 17.1821 18.9514 17.0582L15.8847 14.0048L18.9514 10.9515C19.0764 10.8275 19.1756 10.6801 19.2433 10.5176C19.311 10.3551 19.3458 10.1808 19.3458 10.0048C19.3458 9.82881 19.311 9.65454 19.2433 9.49206C19.1756 9.32958 19.0764 9.18211 18.9514 9.05816ZM23.4314 4.57816C22.2015 3.30469 20.7302 2.28893 19.1035 1.59014C17.4768 0.891356 15.7272 0.52354 13.9568 0.508156C12.1864 0.492771 10.4306 0.830128 8.79202 1.50054C7.15341 2.17095 5.66471 3.16099 4.41281 4.4129C3.16091 5.6648 2.17087 7.15349 1.50046 8.79211C0.830044 10.4307 0.492688 12.1865 0.508072 13.9568C0.523456 15.7272 0.891273 17.4768 1.59006 19.1036C2.28885 20.7303 3.30461 22.2015 4.57808 23.4315C5.80804 24.705 7.2793 25.7207 8.90602 26.4195C10.5327 27.1183 12.2823 27.4861 14.0527 27.5015C15.8231 27.5169 17.5788 27.1795 19.2175 26.5091C20.8561 25.8387 22.3448 24.8487 23.5967 23.5968C24.8486 22.3449 25.8386 20.8562 26.509 19.2175C27.1794 17.5789 27.5168 15.8232 27.5014 14.0528C27.486 12.2824 27.1182 10.5328 26.4194 8.9061C25.7206 7.27938 24.7049 5.80812 23.4314 4.57816ZM21.5514 21.5515C19.8075 23.2974 17.5121 24.3846 15.0565 24.6279C12.6008 24.8712 10.1368 24.2556 8.08411 22.8859C6.03146 21.5161 4.51722 19.4771 3.79938 17.1161C3.08153 14.7552 3.20448 12.2184 4.1473 9.93787C5.09011 7.6574 6.79444 5.77436 8.96993 4.60958C11.1454 3.4448 13.6575 3.07034 16.0781 3.54999C18.4987 4.02965 20.6781 5.33375 22.2451 7.24011C23.812 9.14647 24.6695 11.5371 24.6714 14.0048C24.6762 15.4065 24.4029 16.7953 23.8673 18.0907C23.3318 19.3861 22.5446 20.5624 21.5514 21.5515Z" fill="#8A96B1"/>
</svg>
