<svg width="32" height="32" viewBox="0 0 32 32" fill="none" xmlns="http://www.w3.org/2000/svg">
<g clip-path="url(#clip0_35_53)">
<path d="M25.3333 0H6.66667C4.89921 0.00211714 3.20474 0.705176 1.95496 1.95496C0.705176 3.20474 0.00211714 4.89921 0 6.66667L0 25.3333C0.000376413 27.0805 0.68925 28.7572 1.91733 30C1.93067 30.0147 1.936 30.0347 1.95067 30.0493C1.96533 30.064 1.98533 30.0693 2 30.0827C3.24279 31.3108 4.91947 31.9996 6.66667 32H25.3333C27.1008 31.9979 28.7953 31.2948 30.045 30.045C31.2948 28.7953 31.9979 27.1008 32 25.3333V6.66667C31.9979 4.89921 31.2948 3.20474 30.045 1.95496C28.7953 0.705176 27.1008 0.00211714 25.3333 0V0ZM2.66667 6.66667C2.66667 5.6058 3.08809 4.58839 3.83824 3.83824C4.58839 3.08809 5.6058 2.66667 6.66667 2.66667H25.3333C26.3942 2.66667 27.4116 3.08809 28.1618 3.83824C28.9119 4.58839 29.3333 5.6058 29.3333 6.66667V20.7813L23.6093 15.0573C23.3593 14.8074 23.0202 14.667 22.6667 14.667C22.3131 14.667 21.974 14.8074 21.724 15.0573L15.3333 21.448L12.9427 19.0573C12.6926 18.8074 12.3536 18.667 12 18.667C11.6464 18.667 11.3074 18.8074 11.0573 19.0573L3.06667 27.0467C2.80572 26.5131 2.66897 25.9273 2.66667 25.3333V6.66667ZM25.3333 29.3333H6.66667C6.07268 29.331 5.48693 29.1943 4.95333 28.9333L12 21.8853L16.3907 26.276C16.6429 26.5218 16.9811 26.6594 17.3333 26.6594C17.6855 26.6594 18.0238 26.5218 18.276 26.276C18.526 26.026 18.6664 25.6869 18.6664 25.3333C18.6664 24.9798 18.526 24.6407 18.276 24.3907L17.2187 23.3333L22.6667 17.8853L29.3333 24.552V25.3333C29.3333 26.3942 28.9119 27.4116 28.1618 28.1618C27.4116 28.9119 26.3942 29.3333 25.3333 29.3333Z" fill="#8A96B1"/>
<path d="M9.33325 13.3334C10.1244 13.3334 10.8977 13.0988 11.5555 12.6593C12.2133 12.2197 12.726 11.595 13.0288 10.8641C13.3315 10.1332 13.4107 9.32894 13.2564 8.55301C13.1021 7.77709 12.7211 7.06436 12.1617 6.50495C11.6023 5.94554 10.8895 5.56458 10.1136 5.41023C9.33769 5.25589 8.53342 5.33511 7.80252 5.63786C7.07161 5.94061 6.4469 6.4533 6.00737 7.11109C5.56785 7.76889 5.33325 8.54225 5.33325 9.33338C5.33325 10.3942 5.75468 11.4117 6.50482 12.1618C7.25497 12.9119 8.27239 13.3334 9.33325 13.3334ZM9.33325 8.00004C9.59696 8.00004 9.85475 8.07824 10.074 8.22475C10.2933 8.37126 10.4642 8.5795 10.5651 8.82313C10.666 9.06677 10.6924 9.33486 10.641 9.5935C10.5895 9.85214 10.4625 10.0897 10.2761 10.2762C10.0896 10.4627 9.85201 10.5896 9.59337 10.6411C9.33473 10.6925 9.06664 10.6661 8.82301 10.5652C8.57937 10.4643 8.37113 10.2934 8.22463 10.0741C8.07812 9.85487 7.99992 9.59708 7.99992 9.33338C7.99992 8.97975 8.14039 8.64062 8.39044 8.39057C8.64049 8.14052 8.97963 8.00004 9.33325 8.00004Z" fill="#8A96B1"/>
</g>
<defs>
<clipPath id="clip0_35_53">
<rect width="32" height="32" fill="white"/>
</clipPath>
</defs>
</svg>
