<svg width="20" height="24" viewBox="0 0 20 24" fill="none" xmlns="http://www.w3.org/2000/svg">
<path d="M17.9974 24H15.3307C14.9771 24 14.638 23.8595 14.3879 23.6095C14.1379 23.3594 13.9974 23.0203 13.9974 22.6667C13.9974 22.313 14.1379 21.9739 14.3879 21.7239C14.638 21.4738 14.9771 21.3333 15.3307 21.3333H16.6641V2.66667H3.33073V21.3333H9.9974C10.351 21.3333 10.6902 21.4738 10.9402 21.7239C11.1903 21.9739 11.3307 22.313 11.3307 22.6667C11.3307 23.0203 11.1903 23.3594 10.9402 23.6095C10.6902 23.8595 10.351 24 9.9974 24H1.9974C1.64377 24 1.30464 23.8595 1.05459 23.6095C0.804539 23.3594 0.664062 23.0203 0.664062 22.6667V1.33333C0.664062 0.979711 0.804539 0.640573 1.05459 0.390524C1.30464 0.140476 1.64377 0 1.9974 0H17.9974C18.351 0 18.6902 0.140476 18.9402 0.390524C19.1903 0.640573 19.3307 0.979711 19.3307 1.33333V22.6667C19.3307 23.0203 19.1903 23.3594 18.9402 23.6095C18.6902 23.8595 18.351 24 17.9974 24Z" fill="#5149E4"/>
<path d="M13.9974 8.00242H5.9974C5.64377 8.00242 5.30464 7.86194 5.05459 7.6119C4.80454 7.36185 4.66406 7.02271 4.66406 6.66909C4.66406 6.31547 4.80454 5.97633 5.05459 5.72628C5.30464 5.47623 5.64377 5.33575 5.9974 5.33575H13.9974C14.351 5.33575 14.6902 5.47623 14.9402 5.72628C15.1903 5.97633 15.3307 6.31547 15.3307 6.66909C15.3307 7.02271 15.1903 7.36185 14.9402 7.6119C14.6902 7.86194 14.351 8.00242 13.9974 8.00242ZM13.9974 13.3358H5.9974C5.64377 13.3358 5.30464 13.1953 5.05459 12.9452C4.80454 12.6952 4.66406 12.356 4.66406 12.0024C4.66406 11.6488 4.80454 11.3097 5.05459 11.0596C5.30464 10.8096 5.64377 10.6691 5.9974 10.6691H13.9974C14.351 10.6691 14.6902 10.8096 14.9402 11.0596C15.1903 11.3097 15.3307 11.6488 15.3307 12.0024C15.3307 12.356 15.1903 12.6952 14.9402 12.9452C14.6902 13.1953 14.351 13.3358 13.9974 13.3358ZM13.9974 18.6691H5.9974C5.64377 18.6691 5.30464 18.5286 5.05459 18.2786C4.80454 18.0285 4.66406 17.6894 4.66406 17.3358C4.66406 16.9821 4.80454 16.643 5.05459 16.3929C5.30464 16.1429 5.64377 16.0024 5.9974 16.0024H13.9974C14.351 16.0024 14.6902 16.1429 14.9402 16.3929C15.1903 16.643 15.3307 16.9821 15.3307 17.3358C15.3307 17.6894 15.1903 18.0285 14.9402 18.2786C14.6902 18.5286 14.351 18.6691 13.9974 18.6691Z" fill="#5149E4"/>
</svg>
