<svg width="25" height="20" viewBox="0 0 25 20" fill="none" xmlns="http://www.w3.org/2000/svg">
<path d="M24 1.85328C24.0075 1.76455 24.0075 1.67534 24 1.58661L23.88 1.33328C23.88 1.33328 23.88 1.23994 23.8133 1.19994L23.7467 1.13328L23.5333 0.959942C23.475 0.900612 23.4075 0.851087 23.3333 0.813276L23.1067 0.733276H22.84H1.24H0.973333L0.746667 0.826609C0.672327 0.858302 0.604514 0.903511 0.546667 0.959942L0.333333 1.13328C0.333333 1.13328 0.333333 1.13328 0.333333 1.19994C0.333333 1.26661 0.333333 1.29328 0.266667 1.33328L0.146667 1.58661C0.13912 1.67534 0.13912 1.76455 0.146667 1.85328L0 1.99994V17.9999C0 18.3536 0.140476 18.6927 0.390524 18.9428C0.640573 19.1928 0.979711 19.3333 1.33333 19.3333H13.3333C13.687 19.3333 14.0261 19.1928 14.2761 18.9428C14.5262 18.6927 14.6667 18.3536 14.6667 17.9999C14.6667 17.6463 14.5262 17.3072 14.2761 17.0571C14.0261 16.8071 13.687 16.6666 13.3333 16.6666H2.66667V4.66661L11.2 11.0666C11.4308 11.2397 11.7115 11.3333 12 11.3333C12.2885 11.3333 12.5692 11.2397 12.8 11.0666L21.3333 4.66661V16.6666H18.6667C18.313 16.6666 17.9739 16.8071 17.7239 17.0571C17.4738 17.3072 17.3333 17.6463 17.3333 17.9999C17.3333 18.3536 17.4738 18.6927 17.7239 18.9428C17.9739 19.1928 18.313 19.3333 18.6667 19.3333H22.6667C23.0203 19.3333 23.3594 19.1928 23.6095 18.9428C23.8595 18.6927 24 18.3536 24 17.9999V1.99994C24 1.99994 24 1.90661 24 1.85328ZM12 8.33328L5.33333 3.33328H18.6667L12 8.33328Z" fill="#5149E4"/>
</svg>
