<svg width="24" height="24" viewBox="0 0 24 24" fill="none" xmlns="http://www.w3.org/2000/svg">
<path d="M6.93166 12.8205C7.0033 12.8897 7.06043 12.9724 7.09974 13.0639C7.13905 13.1554 7.15974 13.2538 7.1606 13.3534C7.16147 13.453 7.14249 13.5518 7.10478 13.644C7.06707 13.7361 7.01138 13.8199 6.94096 13.8903C6.87054 13.9607 6.7868 14.0164 6.69463 14.0541C6.60246 14.0918 6.5037 14.1108 6.40411 14.1099C6.30453 14.1091 6.20611 14.0884 6.11461 14.0491C6.02311 14.0098 5.94035 13.9526 5.87117 13.881L2.53967 10.5495C2.50456 10.5145 2.47303 10.476 2.44554 10.4347C2.43354 10.4164 2.42492 10.3972 2.41442 10.3774C2.40059 10.3542 2.38807 10.3303 2.37692 10.3057C2.36765 10.2812 2.35977 10.2562 2.35329 10.2307C2.34692 10.209 2.33867 10.1887 2.33417 10.1662C2.31504 10.0693 2.31504 9.96955 2.33417 9.87261C2.33867 9.85049 2.34692 9.82986 2.35329 9.80849C2.35971 9.78305 2.3676 9.75801 2.37692 9.73348C2.38814 9.70884 2.40066 9.68481 2.41442 9.66149C2.42492 9.64236 2.43354 9.62399 2.44554 9.60449C2.47312 9.56316 2.50465 9.52461 2.53967 9.48936L5.87117 6.15786C6.01262 6.02124 6.20207 5.94565 6.39872 5.94736C6.59536 5.94906 6.78347 6.02794 6.92253 6.167C7.06158 6.30605 7.14046 6.49416 7.14217 6.69081C7.14388 6.88746 7.06828 7.07691 6.93166 7.21836L4.88004 9.27036H13.43C13.629 9.27036 13.8197 9.34938 13.9604 9.49003C14.101 9.63068 14.18 9.82145 14.18 10.0204C14.18 10.2193 14.101 10.41 13.9604 10.5507C13.8197 10.6913 13.629 10.7704 13.43 10.7704H4.88004L6.93166 12.8205ZM21.5548 14.3955C21.5668 14.3771 21.5754 14.358 21.5859 14.3385C21.5997 14.3152 21.6122 14.2911 21.6234 14.2665C21.6327 14.242 21.6406 14.2169 21.647 14.1915C21.6534 14.1701 21.6617 14.1495 21.6662 14.1274C21.6853 14.0304 21.6853 13.9307 21.6662 13.8337C21.6617 13.8112 21.6534 13.791 21.647 13.7692C21.6406 13.7438 21.6327 13.7188 21.6234 13.6942C21.6123 13.6697 21.5997 13.6458 21.5859 13.6226C21.5754 13.6035 21.5668 13.5851 21.5548 13.5652C21.5273 13.524 21.4958 13.4855 21.4607 13.4505L18.1292 10.119C17.9877 9.98237 17.7983 9.90677 17.6016 9.90848C17.405 9.91019 17.2169 9.98907 17.0778 10.1281C16.9387 10.2672 16.8599 10.4553 16.8582 10.6519C16.8564 10.8486 16.932 11.038 17.0687 11.1795L19.1203 13.2311H10.5703C10.3714 13.2311 10.1806 13.3101 10.04 13.4508C9.89931 13.5914 9.82029 13.7822 9.82029 13.9811C9.82029 14.18 9.89931 14.3708 10.04 14.5114C10.1806 14.6521 10.3714 14.7311 10.5703 14.7311H19.1203L17.0687 16.7831C16.997 16.8523 16.9399 16.9351 16.9006 17.0266C16.8613 17.1181 16.8406 17.2165 16.8397 17.3161C16.8389 17.4156 16.8578 17.5144 16.8955 17.6066C16.9333 17.6987 16.9889 17.7825 17.0594 17.8529C17.1298 17.9233 17.2135 17.979 17.3057 18.0167C17.3979 18.0544 17.4966 18.0734 17.5962 18.0725C17.6958 18.0717 17.7942 18.051 17.8857 18.0117C17.9772 17.9724 18.06 17.9152 18.1292 17.8436L21.4607 14.5125C21.4957 14.4771 21.5272 14.4384 21.5548 14.397V14.3955Z" fill="#8A96B1"/>
</svg>
