<svg width="32" height="32" viewBox="0 0 32 32" fill="none" xmlns="http://www.w3.org/2000/svg">
<path d="M28 13.3334C27.9962 12.154 27.6015 11.0091 26.8778 10.0779C26.154 9.14662 25.142 8.48156 24 8.18671V5.33338C23.9997 5.11842 23.9473 4.90673 23.8475 4.71636C23.7477 4.52599 23.6033 4.36257 23.4267 4.24004C23.2519 4.11843 23.0506 4.04045 22.8395 4.01261C22.6284 3.98477 22.4137 4.0079 22.2134 4.08004L10.5734 8.30671L5.41336 8.00004C5.2309 7.98828 5.04797 8.01417 4.87594 8.0761C4.70391 8.13803 4.54645 8.23468 4.41336 8.36004C4.28173 8.48552 4.17716 8.6366 4.10607 8.80398C4.03499 8.97137 3.9989 9.15153 4.00003 9.33338V18.6667C4.00027 18.856 4.04082 19.0431 4.11898 19.2155C4.19715 19.388 4.31113 19.5418 4.45336 19.6667C4.59447 19.7902 4.76003 19.8825 4.93923 19.9376C5.11843 19.9928 5.30725 20.0095 5.49336 19.9867L7.24003 19.7734L8.49336 26.8934C8.54733 27.2064 8.7113 27.4899 8.95575 27.6928C9.20019 27.8957 9.50905 28.0047 9.82669 28H14.6667C14.8613 28.0026 15.0541 27.9624 15.2315 27.8825C15.4089 27.8026 15.5667 27.6848 15.6938 27.5374C15.8208 27.39 15.9141 27.2166 15.967 27.0293C16.0199 26.8421 16.0312 26.6455 16 26.4534L15.0134 20.5867L22.3067 22.6667C22.4259 22.6861 22.5475 22.6861 22.6667 22.6667C23.0203 22.6667 23.3595 22.5262 23.6095 22.2762C23.8595 22.0261 24 21.687 24 21.3334V18.48C25.142 18.1852 26.154 17.5201 26.8778 16.5889C27.6015 15.6577 27.9962 14.5128 28 13.3334ZM6.66669 10.7467L9.33336 10.8934V16.8267L6.66669 17.16V10.7467ZM13.0934 25.3334H10.9334L9.89336 19.44L10.5734 19.36L12.1734 19.8L13.0934 25.3334ZM21.3334 19.5734L14.0667 17.56C13.8497 17.4142 13.5947 17.3354 13.3334 17.3334L12 16.96V10.6667L21.3334 7.28004V19.5734ZM24 15.5734V11.04C24.398 11.2762 24.7276 11.6118 24.9566 12.0138C25.1855 12.4159 25.3059 12.8707 25.3059 13.3334C25.3059 13.7961 25.1855 14.2508 24.9566 14.6529C24.7276 15.055 24.398 15.3906 24 15.6267V15.5734Z" fill="#8A96B1"/>
</svg>
