<svg width="28" height="28" viewBox="0 0 28 28" fill="none" xmlns="http://www.w3.org/2000/svg">
<path d="M27.2973 20.3613C27.2525 20.1711 27.1665 19.9931 27.0453 19.8399C26.9241 19.6867 26.7707 19.562 26.596 19.4746L21.2627 16.8079C21.0123 16.683 20.729 16.64 20.4529 16.685C20.1767 16.7299 19.9217 16.8607 19.724 17.0586L17.4907 19.2919C14.2813 18.7759 9.22399 13.7199 8.70932 10.5106L10.9427 8.27593C11.1406 8.07819 11.2713 7.8232 11.3163 7.54705C11.3613 7.27091 11.3183 6.98761 11.1933 6.73727L8.52666 1.40393C8.43936 1.22911 8.31471 1.07562 8.16152 0.954309C8.00833 0.833002 7.83035 0.746847 7.64018 0.701943C7.45 0.657039 7.25228 0.654484 7.06101 0.694458C6.86974 0.734431 6.6896 0.815957 6.53332 0.933266L1.19999 4.93327C1.0344 5.05746 0.89999 5.21851 0.80742 5.40365C0.71485 5.58879 0.666656 5.79294 0.666656 5.99993C0.666656 18.7599 9.23999 27.3333 22 27.3333C22.207 27.3333 22.4111 27.2851 22.5963 27.1925C22.7814 27.0999 22.9425 26.9655 23.0667 26.7999L27.0667 21.4666C27.1836 21.3105 27.2649 21.1305 27.3048 20.9396C27.3446 20.7486 27.3421 20.5512 27.2973 20.3613ZM21.3333 24.6573C10.7587 24.3733 3.62666 17.2413 3.34266 6.6666L6.85599 4.02527L8.37732 7.0666L6.39066 9.05327C6.26636 9.17752 6.16786 9.32513 6.10081 9.4876C6.03376 9.65006 5.9995 9.82418 5.99999 9.99993C5.99999 14.7106 13.2893 21.9999 18 21.9999C18.3536 21.9999 18.6927 21.8593 18.9427 21.6093L20.9293 19.6226L23.9747 21.1453L21.3333 24.6573Z" fill="#5149E4"/>
</svg>
