<svg width="24" height="24" viewBox="0 0 24 24" fill="none" xmlns="http://www.w3.org/2000/svg">
<path d="M8.26344 21.75C7.87494 21.75 7.49094 21.6007 7.19994 21.3097L2.69019 16.8C2.10294 16.2135 2.10294 15.261 2.69019 14.6745C3.27744 14.0872 4.22844 14.0872 4.81569 14.6745L8.44194 18.3007L19.3957 10.782C20.0797 10.3125 21.0157 10.4865 21.4852 11.1705C21.9554 11.8552 21.7814 12.7905 21.0967 13.2607L9.11394 21.486C8.85519 21.663 8.55894 21.75 8.26344 21.75Z" fill="#FFB9CD"/>
<path d="M8.26344 13.482C7.87494 13.482 7.49094 13.3328 7.19994 13.0418L2.69019 8.53203C2.10294 7.94479 2.10294 6.99304 2.69019 6.40654C3.27744 5.81929 4.22844 5.81929 4.81569 6.40654L8.44194 10.0328L19.3957 2.51404C20.0797 2.04454 21.0157 2.21854 21.4852 2.90254C21.9554 3.58729 21.7814 4.52254 21.0967 4.99279L9.11394 13.2188C8.85519 13.3958 8.55894 13.482 8.26344 13.482Z" fill="#FFB9CD"/>
</svg>
