<svg width="28" height="23" viewBox="0 0 28 23" fill="none" xmlns="http://www.w3.org/2000/svg">
<path d="M26.0001 12.62C25.949 12.3045 25.7862 12.0179 25.5415 11.8123C25.2968 11.6067 24.9863 11.4959 24.6667 11.5H19.3334C19.528 11.5025 19.7208 11.4624 19.8982 11.3825C20.0756 11.3026 20.2334 11.1848 20.3605 11.0374C20.4875 10.89 20.5808 10.7166 20.6337 10.5293C20.6866 10.342 20.6979 10.1455 20.6667 9.95336L19.3334 1.95336C19.2823 1.63786 19.1195 1.35122 18.8748 1.14565C18.6301 0.940073 18.3197 0.829249 18.0001 0.833362H10.0001C9.68048 0.829249 9.37005 0.940073 9.12532 1.14565C8.88059 1.35122 8.71784 1.63786 8.66673 1.95336L7.3334 9.95336C7.30291 10.1449 7.31455 10.3407 7.36752 10.5272C7.42048 10.7137 7.51349 10.8865 7.64007 11.0334C7.7667 11.1814 7.92425 11.3 8.10163 11.3806C8.27901 11.4612 8.4719 11.502 8.66673 11.5H3.3334C3.01381 11.4959 2.70338 11.6067 2.45865 11.8123C2.21392 12.0179 2.05118 12.3045 2.00007 12.62L0.666732 20.62C0.636244 20.8115 0.647888 21.0074 0.700852 21.1939C0.753817 21.3804 0.846827 21.5531 0.973399 21.7C1.10004 21.8481 1.25759 21.9666 1.43496 22.0473C1.61234 22.1279 1.80523 22.1686 2.00007 22.1667H12.6667C12.8593 22.1667 13.0496 22.125 13.2246 22.0444C13.3995 21.9639 13.5549 21.8464 13.6801 21.7C13.8066 21.5531 13.8996 21.3804 13.9526 21.1939C14.0056 21.0074 14.0172 20.8115 13.9867 20.62L12.6534 12.62C12.6026 12.3068 12.4418 12.022 12.1999 11.8167C11.9579 11.6114 11.6507 11.4991 11.3334 11.5H16.6667C16.3471 11.4959 16.0367 11.6067 15.792 11.8123C15.5473 12.0179 15.3845 12.3045 15.3334 12.62L14.0001 20.62C13.9696 20.8115 13.9812 21.0074 14.0342 21.1939C14.0871 21.3804 14.1802 21.5531 14.3067 21.7C14.4334 21.8481 14.5909 21.9666 14.7683 22.0473C14.9457 22.1279 15.1386 22.1686 15.3334 22.1667H19.3334C19.687 22.1667 20.0262 22.0262 20.2762 21.7762C20.5263 21.5261 20.6667 21.187 20.6667 20.8334C20.6667 20.4797 20.5263 20.1406 20.2762 19.8906C20.0262 19.6405 19.687 19.5 19.3334 19.5H16.9067L17.8001 14.1667H23.5334L24.4267 19.5H23.3334C22.9798 19.5 22.6406 19.6405 22.3906 19.8906C22.1405 20.1406 22.0001 20.4797 22.0001 20.8334C22.0001 21.187 22.1405 21.5261 22.3906 21.7762C22.6406 22.0262 22.9798 22.1667 23.3334 22.1667H26.0001C26.1947 22.1692 26.3874 22.1291 26.5649 22.0492C26.7423 21.9692 26.9001 21.8515 27.0271 21.7041C27.1542 21.5567 27.2475 21.3832 27.3004 21.196C27.3533 21.0087 27.3646 20.8121 27.3334 20.62L26.0001 12.62ZM3.5734 19.5L4.46673 14.1667H10.2001L11.0934 19.5H3.5734ZM10.2401 8.83336L11.1334 3.50003H16.8667L17.7601 8.83336H10.2401Z" fill="#FF5B5B"/>
</svg>
