<svg width="28" height="28" viewBox="0 0 28 28" fill="none" xmlns="http://www.w3.org/2000/svg">
<path d="M26.093 20.4401L23.333 17.6134C22.7393 17.0491 21.9904 16.6751 21.1826 16.5397C20.3748 16.4043 19.5449 16.5135 18.7997 16.8534L17.5997 15.6534C19.0137 13.7639 19.6595 11.409 19.407 9.06251C19.1546 6.71605 18.0226 4.55236 16.2389 3.00699C14.4552 1.46163 12.1524 0.649335 9.79388 0.733639C7.43539 0.817942 5.19639 1.79258 3.52762 3.46135C1.85885 5.13012 0.884211 7.36912 0.799907 9.72761C0.715604 12.0861 1.5279 14.389 3.07326 16.1726C4.61863 17.9563 6.78232 19.0883 9.12878 19.3408C11.4752 19.5933 13.8302 18.9475 15.7197 17.5334L16.9063 18.7201C16.5264 19.4662 16.3903 20.3128 16.5171 21.1405C16.6439 21.9681 17.0272 22.7351 17.613 23.3334L20.4397 26.1601C21.1897 26.9091 22.2063 27.3299 23.2663 27.3299C24.3263 27.3299 25.343 26.9091 26.093 26.1601C26.474 25.7875 26.7767 25.3426 26.9834 24.8515C27.19 24.3604 27.2965 23.8329 27.2965 23.3001C27.2965 22.7672 27.19 22.2397 26.9834 21.7486C26.7767 21.2575 26.474 20.8126 26.093 20.4401ZM14.7863 14.7867C13.8533 15.7174 12.6654 16.3507 11.3726 16.6065C10.0799 16.8624 8.74032 16.7294 7.52313 16.2243C6.30594 15.7192 5.26574 14.8647 4.53394 13.7688C3.80215 12.6728 3.41158 11.3846 3.41158 10.0667C3.41158 8.7489 3.80215 7.46064 4.53394 6.36468C5.26574 5.26871 6.30594 4.41422 7.52313 3.90914C8.74032 3.40406 10.0799 3.27106 11.3726 3.52693C12.6654 3.7828 13.8533 4.41606 14.7863 5.34673C15.4072 5.966 15.8997 6.70168 16.2358 7.51161C16.5719 8.32155 16.7449 9.18983 16.7449 10.0667C16.7449 10.9436 16.5719 11.8119 16.2358 12.6218C15.8997 13.4318 15.4072 14.1675 14.7863 14.7867ZM24.213 24.2134C24.089 24.3384 23.9416 24.4376 23.7791 24.5052C23.6166 24.5729 23.4423 24.6078 23.2663 24.6078C23.0903 24.6078 22.916 24.5729 22.7536 24.5052C22.5911 24.4376 22.4436 24.3384 22.3197 24.2134L19.493 21.3867C19.368 21.2628 19.2688 21.1153 19.2011 20.9528C19.1334 20.7903 19.0986 20.6161 19.0986 20.4401C19.0986 20.264 19.1334 20.0898 19.2011 19.9273C19.2688 19.7648 19.368 19.6173 19.493 19.4934C19.6169 19.3684 19.7644 19.2692 19.9269 19.2015C20.0894 19.1338 20.2636 19.099 20.4397 19.099C20.6157 19.099 20.79 19.1338 20.9524 19.2015C21.1149 19.2692 21.2624 19.3684 21.3863 19.4934L24.213 22.3201C24.338 22.444 24.4372 22.5915 24.5048 22.754C24.5725 22.9164 24.6074 23.0907 24.6074 23.2667C24.6074 23.4427 24.5725 23.617 24.5048 23.7795C24.4372 23.942 24.338 24.0894 24.213 24.2134Z" fill="#5149E4"/>
</svg>
