<svg width="14" height="9" viewBox="0 0 14 9" fill="none" xmlns="http://www.w3.org/2000/svg">
<path d="M7.00006 9.00008C6.82459 9.0011 6.65064 8.96746 6.48819 8.90111C6.32574 8.83476 6.17798 8.73699 6.0534 8.61342L0.720064 3.28008C0.468993 3.02901 0.327942 2.68849 0.327942 2.33342C0.327942 1.97835 0.468993 1.63782 0.720064 1.38675C0.971136 1.13568 1.31166 0.994629 1.66673 0.994629C2.0218 0.994629 2.36233 1.13568 2.6134 1.38675L7.00006 5.78675L11.3867 1.40008C11.6418 1.18165 11.9699 1.06751 12.3055 1.08047C12.641 1.09343 12.9594 1.23254 13.1968 1.47C13.4343 1.70746 13.5734 2.02578 13.5863 2.36135C13.5993 2.69691 13.4852 3.02502 13.2667 3.28008L7.9334 8.61342C7.68505 8.85974 7.34985 8.99861 7.00006 9.00008Z" fill="white"/>
</svg>
