<svg width="27" height="22" viewBox="0 0 27 22" fill="none" xmlns="http://www.w3.org/2000/svg">
<path fill-rule="evenodd" clip-rule="evenodd" d="M2.83366 3.61631V6.85187C2.83366 7.58817 2.23633 8.1855 1.50033 8.1855C0.764326 8.1855 0.166992 7.58817 0.166992 6.85187V1.66668C0.166992 1.22698 0.384325 0.81424 0.746992 0.566388C1.11099 0.317499 1.57366 0.26461 1.98299 0.424314L25.983 9.75765C26.4963 9.95676 26.8337 10.4504 26.8337 11C26.8337 11.5497 26.4963 12.0433 25.983 12.2424L1.98299 21.5757C1.57366 21.7354 1.11099 21.6825 0.746992 21.4337C0.384325 21.1858 0.166992 20.7731 0.166992 20.3334C0.166992 20.3334 0.166992 16.4248 0.166992 13.6662C0.166992 11.4574 1.95766 9.66639 4.16699 9.66639H10.8337C11.5697 9.66639 12.167 10.2637 12.167 11C12.167 11.7363 11.5697 12.3337 10.8337 12.3337C10.8337 12.3337 6.92566 12.3337 4.16699 12.3337C3.43099 12.3337 2.83366 12.9299 2.83366 13.6662V18.3837L21.8217 11L2.83366 3.61631Z" fill="white"/>
</svg>
