<svg width="24" height="25" viewBox="0 0 24 25" fill="none" xmlns="http://www.w3.org/2000/svg">
<path d="M19.7733 16.1466C20.4259 15.6345 20.9032 14.9322 21.139 14.1368C21.3748 13.3415 21.3574 12.4925 21.0894 11.7074C20.8214 10.9224 20.3159 10.2401 19.6429 9.75499C18.97 9.26991 18.1629 9.00606 17.3333 8.99997C16.9442 9.00772 16.5582 9.07057 16.1867 9.18664C15.666 8.74918 15.0815 8.39395 14.4533 8.1333C15.1135 7.62286 15.5976 6.9187 15.8376 6.11945C16.0777 5.3202 16.0617 4.46588 15.792 3.67614C15.5223 2.8864 15.0124 2.20079 14.3336 1.71532C13.6548 1.22985 12.8412 0.968842 12.0067 0.968842C11.1721 0.968842 10.3585 1.22985 9.67974 1.71532C9.00095 2.20079 8.49101 2.8864 8.22131 3.67614C7.95161 4.46588 7.93568 5.3202 8.17573 6.11945C8.41578 6.9187 8.8998 7.62286 9.56 8.1333C8.92387 8.38017 8.33351 8.73169 7.81333 9.1733C7.21661 8.99475 6.58643 8.95802 5.97299 9.06603C5.35956 9.17405 4.77983 9.42383 4.27999 9.79547C3.78014 10.1671 3.374 10.6504 3.09391 11.2067C2.81381 11.763 2.66752 12.3771 2.66667 13C2.67016 13.6086 2.8125 14.2084 3.08284 14.7537C3.35317 15.299 3.74438 15.7754 4.22667 16.1466C2.98335 16.6356 1.91563 17.4869 1.16198 18.59C0.408321 19.6932 0.00349527 20.9973 0 22.3333V23.6666C0 24.0203 0.140476 24.3594 0.390524 24.6094C0.640573 24.8595 0.979711 25 1.33333 25H16C16.3536 25 16.6928 24.8595 16.9428 24.6094C17.1929 24.3594 17.3333 24.0203 17.3333 23.6666C17.3333 23.313 17.1929 22.9739 16.9428 22.7238C16.6928 22.4738 16.3536 22.3333 16 22.3333H13.3333C13.3333 21.2724 13.7548 20.255 14.5049 19.5049C15.2551 18.7547 16.2725 18.3333 17.3333 18.3333C18.3942 18.3333 19.4116 18.7547 20.1618 19.5049C20.9119 20.255 21.3333 21.2724 21.3333 22.3333C20.9797 22.3333 20.6406 22.4738 20.3905 22.7238C20.1405 22.9739 20 23.313 20 23.6666C20 24.0203 20.1405 24.3594 20.3905 24.6094C20.6406 24.8595 20.9797 25 21.3333 25H22.6667C23.0203 25 23.3594 24.8595 23.6095 24.6094C23.8595 24.3594 24 24.0203 24 23.6666V22.3333C23.9965 20.9973 23.5917 19.6932 22.838 18.59C22.0844 17.4869 21.0166 16.6356 19.7733 16.1466ZM18.6667 13C18.6667 13.2637 18.5885 13.5215 18.442 13.7407C18.2955 13.96 18.0872 14.1309 17.8436 14.2318C17.5999 14.3327 17.3319 14.3591 17.0732 14.3077C16.8146 14.2562 16.577 14.1292 16.3905 13.9428C16.2041 13.7563 16.0771 13.5187 16.0256 13.2601C15.9742 13.0015 16.0006 12.7334 16.1015 12.4897C16.2024 12.2461 16.3733 12.0379 16.5926 11.8913C16.8118 11.7448 17.0696 11.6666 17.3333 11.6666C17.687 11.6666 18.0261 11.8071 18.2761 12.0572C18.5262 12.3072 18.6667 12.6463 18.6667 13ZM12 3.66664C12.2637 3.66664 12.5215 3.74484 12.7408 3.89134C12.96 4.03785 13.1309 4.24609 13.2318 4.48973C13.3328 4.73336 13.3592 5.00145 13.3077 5.26009C13.2563 5.51873 13.1293 5.75631 12.9428 5.94278C12.7563 6.12925 12.5188 6.25624 12.2601 6.30768C12.0015 6.35913 11.7334 6.33273 11.4898 6.23181C11.2461 6.13089 11.0379 5.96 10.8914 5.74073C10.7449 5.52147 10.6667 5.26368 10.6667 4.99997C10.6667 4.64635 10.8071 4.30721 11.0572 4.05716C11.3072 3.80711 11.6464 3.66664 12 3.66664ZM6.66667 11.6666C6.93038 11.6666 7.18816 11.7448 7.40743 11.8913C7.62669 12.0379 7.79759 12.2461 7.89851 12.4897C7.99942 12.7334 8.02583 13.0015 7.97438 13.2601C7.92293 13.5187 7.79595 13.7563 7.60948 13.9428C7.42301 14.1292 7.18543 14.2562 6.92679 14.3077C6.66815 14.3591 6.40006 14.3327 6.15642 14.2318C5.91279 14.1309 5.70455 13.96 5.55804 13.7407C5.41153 13.5215 5.33333 13.2637 5.33333 13C5.33333 12.6463 5.47381 12.3072 5.72386 12.0572C5.97391 11.8071 6.31305 11.6666 6.66667 11.6666ZM6.66667 18.3333C7.72753 18.3333 8.74495 18.7547 9.49509 19.5049C10.2452 20.255 10.6667 21.2724 10.6667 22.3333H2.66667C2.66667 21.2724 3.08809 20.255 3.83824 19.5049C4.58839 18.7547 5.6058 18.3333 6.66667 18.3333ZM12 18.3333C11.2615 17.3363 10.2595 16.5652 9.10667 16.1066C9.89761 15.5082 10.4333 14.633 10.6063 13.6564C10.7794 12.6797 10.5771 11.6738 10.04 10.84C10.6431 10.5178 11.3163 10.3493 12 10.3493C12.6837 10.3493 13.3569 10.5178 13.96 10.84C13.4229 11.6738 13.2206 12.6797 13.3937 13.6564C13.5667 14.633 14.1024 15.5082 14.8933 16.1066C13.7405 16.5652 12.7385 17.3363 12 18.3333Z" fill="#5149E4"/>
</svg>
