<svg width="32" height="32" viewBox="0 0 32 32" fill="none" xmlns="http://www.w3.org/2000/svg">
<path d="M11.9999 26.6667H6.66659C6.31296 26.6667 5.97382 26.5262 5.72378 26.2761C5.47373 26.0261 5.33325 25.687 5.33325 25.3333V20C5.33325 19.6464 5.47373 19.3072 5.72378 19.0572C5.97382 18.8071 6.31296 18.6667 6.66659 18.6667C7.02021 18.6667 7.35935 18.8071 7.60939 19.0572C7.85944 19.3072 7.99992 19.6464 7.99992 20V24H11.9999C12.3535 24 12.6927 24.1405 12.9427 24.3905C13.1928 24.6406 13.3333 24.9797 13.3333 25.3333C13.3333 25.687 13.1928 26.0261 12.9427 26.2761C12.6927 26.5262 12.3535 26.6667 11.9999 26.6667ZM18.6666 14.6667C18.4018 14.6682 18.1425 14.5908 17.9218 14.4444C17.7011 14.298 17.529 14.0892 17.4274 13.8446C17.3259 13.6001 17.2995 13.3308 17.3515 13.0711C17.4036 12.8114 17.5319 12.5732 17.7199 12.3867L24.3866 5.72C24.6417 5.50157 24.9698 5.38742 25.3053 5.40039C25.6409 5.41335 25.9592 5.55246 26.1967 5.78992C26.4341 6.02738 26.5732 6.34569 26.5862 6.68126C26.5992 7.01683 26.485 7.34493 26.2666 7.6L19.5999 14.2667C19.3537 14.5179 19.0183 14.6617 18.6666 14.6667Z" fill="#8A96B1"/>
<path d="M25.3334 13.3333C24.9798 13.3333 24.6407 13.1929 24.3906 12.9428C24.1406 12.6928 24.0001 12.3536 24.0001 12V8H20.0001C19.6465 8 19.3073 7.85953 19.0573 7.60948C18.8072 7.35943 18.6668 7.02029 18.6668 6.66667C18.6668 6.31305 18.8072 5.97391 19.0573 5.72386C19.3073 5.47381 19.6465 5.33334 20.0001 5.33334H25.3334C25.6871 5.33334 26.0262 5.47381 26.2762 5.72386C26.5263 5.97391 26.6668 6.31305 26.6668 6.66667V12C26.6668 12.3536 26.5263 12.6928 26.2762 12.9428C26.0262 13.1929 25.6871 13.3333 25.3334 13.3333ZM6.66677 26.6667C6.40194 26.6682 6.14265 26.5908 5.92195 26.4444C5.70126 26.298 5.52917 26.0892 5.42761 25.8446C5.32605 25.6001 5.29964 25.3308 5.35173 25.0711C5.40382 24.8114 5.53207 24.5732 5.7201 24.3867L12.3868 17.72C12.6418 17.5016 12.9699 17.3874 13.3055 17.4004C13.6411 17.4133 13.9594 17.5525 14.1969 17.7899C14.4343 18.0274 14.5734 18.3457 14.5864 18.6813C14.5993 19.0168 14.4852 19.3449 14.2668 19.6L7.6001 26.2667C7.35393 26.5179 7.01846 26.6617 6.66677 26.6667V26.6667Z" fill="#8A96B1"/>
</svg>
