<svg width="22" height="20" viewBox="0 0 22 20" fill="none" xmlns="http://www.w3.org/2000/svg">
<path d="M8.03058 7.4253C7.38743 7.4253 6.74428 7.4253 6.1032 7.4253C5.08573 7.4253 4.07034 7.4253 3.05287 7.4253C2.80471 7.4253 2.54621 7.44598 2.29805 7.41909C2.37043 7.42943 2.44488 7.43977 2.51726 7.44805C2.45108 7.43771 2.39111 7.42323 2.32907 7.39841C2.39525 7.4253 2.46142 7.45425 2.5276 7.48113C2.46969 7.45425 2.41593 7.42323 2.36422 7.38394C2.42006 7.42737 2.4759 7.47079 2.53173 7.51422C2.49037 7.47907 2.45315 7.44184 2.41799 7.40048C2.46142 7.45632 2.50485 7.51215 2.54828 7.56799C2.50899 7.51629 2.47797 7.46459 2.45108 7.40462C2.47797 7.47079 2.50692 7.53697 2.5338 7.60315C2.50899 7.54111 2.49244 7.48113 2.48417 7.41496C2.49451 7.48734 2.50485 7.56179 2.51312 7.63417C2.49244 7.42943 2.50692 7.2185 2.50692 7.01376C2.50692 6.5588 2.50692 6.10384 2.50692 5.65094C2.50692 4.62521 2.50692 3.5974 2.50692 2.57167C2.50692 2.32351 2.48624 2.065 2.51312 1.81684C2.50278 1.88922 2.49244 1.96367 2.48417 2.03605C2.49451 1.96987 2.50899 1.9099 2.5338 1.84786C2.50692 1.91404 2.47797 1.98021 2.45108 2.04639C2.47797 1.98849 2.50899 1.93472 2.54828 1.88302C2.50485 1.93885 2.46142 1.99469 2.41799 2.05053C2.45315 2.00917 2.49037 1.97194 2.53173 1.93679C2.4759 1.98021 2.42006 2.02364 2.36422 2.06707C2.41593 2.02778 2.46763 1.99676 2.5276 1.96987C2.46142 1.99676 2.39525 2.02571 2.32907 2.0526C2.39111 2.02778 2.45108 2.01124 2.51726 2.00296C2.44488 2.0133 2.37043 2.02364 2.29805 2.03192C2.50278 2.01123 2.71372 2.02571 2.91845 2.02571C3.37342 2.02571 3.82838 2.02571 4.28127 2.02571C5.30701 2.02571 6.33481 2.02571 7.36055 2.02571C7.60871 2.02571 7.86721 2.00503 8.11537 2.03192C8.04299 2.02158 7.96854 2.01124 7.89616 2.00296C7.96234 2.0133 8.02231 2.02778 8.08435 2.0526C8.01818 2.02571 7.952 1.99676 7.88582 1.96987C7.94373 1.99676 7.9975 2.02778 8.0492 2.06707C7.99336 2.02364 7.93752 1.98021 7.88169 1.93679C7.92305 1.97194 7.96027 2.00917 7.99543 2.05053C7.952 1.99469 7.90857 1.93885 7.86514 1.88302C7.90444 1.93472 7.93546 1.98642 7.96234 2.04639C7.93546 1.98021 7.9065 1.91404 7.87962 1.84786C7.90444 1.9099 7.92098 1.96987 7.92925 2.03605C7.91891 1.96367 7.90857 1.88922 7.9003 1.81684C7.92098 2.02158 7.9065 2.23251 7.9065 2.43725C7.9065 2.89221 7.9065 3.34717 7.9065 3.80007C7.9065 4.8258 7.9065 5.85361 7.9065 6.87934C7.9065 7.1275 7.92718 7.38601 7.9003 7.63417C7.91064 7.56179 7.92098 7.48734 7.92925 7.41496C7.91891 7.48113 7.90444 7.54111 7.87962 7.60315C7.9065 7.53697 7.93546 7.47079 7.96234 7.40462C7.93546 7.46252 7.90444 7.51629 7.86514 7.56799C7.90857 7.51215 7.952 7.45632 7.99543 7.40048C7.96027 7.44184 7.92305 7.47907 7.88169 7.51422C7.93752 7.47079 7.99336 7.42737 8.0492 7.38394C7.9975 7.42323 7.9458 7.45425 7.88582 7.48113C7.952 7.45425 8.01818 7.4253 8.08435 7.39841C8.02231 7.42323 7.96234 7.43977 7.89616 7.44805C7.96854 7.43771 8.04299 7.42737 8.11537 7.41909C8.08849 7.42323 8.05954 7.4253 8.03058 7.4253C7.81551 7.42943 7.59837 7.51422 7.44534 7.66726C7.30264 7.80995 7.19304 8.0457 7.20338 8.2525C7.22406 8.69299 7.56735 9.09005 8.03058 9.07971C8.43592 9.07144 8.8247 8.92047 9.11216 8.63095C9.39341 8.3497 9.5423 7.97332 9.55885 7.57833C9.56092 7.51009 9.55885 7.44391 9.55885 7.37567C9.55885 6.97447 9.55885 6.57121 9.55885 6.17001C9.55885 5.0264 9.55885 3.88279 9.55885 2.73918C9.55885 2.46413 9.56298 2.18908 9.55885 1.91404C9.55058 1.35154 9.24244 0.782834 8.71923 0.540876C8.48762 0.43334 8.27875 0.375435 8.01818 0.373367C7.98716 0.373367 7.9582 0.373367 7.92718 0.373367C6.9821 0.373367 6.03702 0.373367 5.09194 0.373367C4.20269 0.373367 3.31344 0.373367 2.42627 0.373367C2.00853 0.373367 1.59906 0.522264 1.30127 0.822126C1.0014 1.12199 0.852506 1.52939 0.852506 1.95126C0.852506 2.27387 0.852506 2.59855 0.852506 2.92116C0.852506 4.06891 0.852506 5.21666 0.852506 6.36441C0.852506 6.72631 0.852506 7.08821 0.852506 7.45218C0.852506 7.48113 0.852506 7.51009 0.852506 7.54111C0.854574 7.79961 0.914547 8.01261 1.02002 8.24216C1.26197 8.76537 1.83068 9.07351 2.39318 9.08178C3.22038 9.09212 4.04759 9.08178 4.87479 9.08178C5.86744 9.08178 6.86216 9.08178 7.8548 9.08178C7.91271 9.08178 7.97061 9.08178 8.02852 9.08178C8.46073 9.08178 8.8764 8.70126 8.85572 8.25457C8.83918 7.80374 8.49589 7.4253 8.03058 7.4253ZM8.03058 10.9202C7.27369 10.9202 6.51887 10.9202 5.76197 10.9202C4.72383 10.9202 3.68569 10.9202 2.64754 10.9202C2.56275 10.9202 2.47797 10.9182 2.39318 10.9202C1.72314 10.9306 1.16064 11.3442 0.935227 11.9708C0.821486 12.2851 0.854574 12.6615 0.854574 12.9924C0.854574 14.1009 0.854574 15.2072 0.854574 16.3157C0.854574 16.7872 0.854574 17.2566 0.854574 17.7281C0.854574 17.8378 0.854574 17.9494 0.854574 18.059C0.854574 18.4892 1.01588 18.9255 1.34263 19.2171C1.65076 19.4922 2.02507 19.6287 2.43661 19.6287C2.55862 19.6287 2.67856 19.6287 2.80058 19.6287C3.27829 19.6287 3.75807 19.6287 4.23578 19.6287C5.33596 19.6287 6.43408 19.6287 7.53426 19.6287C7.66868 19.6287 7.80517 19.6287 7.93959 19.6287C8.23325 19.6287 8.5083 19.5749 8.773 19.4363C9.26726 19.1799 9.55885 18.6298 9.56298 18.0838C9.56298 17.9887 9.56298 17.8957 9.56298 17.8005C9.56298 16.7541 9.56298 15.7056 9.56298 14.6592C9.56298 14.136 9.56298 13.6149 9.56298 13.0917C9.56298 12.8518 9.57953 12.6036 9.55678 12.3637C9.52369 11.9832 9.381 11.613 9.09354 11.3483C8.79989 11.0774 8.43385 10.9285 8.03058 10.9202C7.59837 10.912 7.1827 11.307 7.20338 11.7474C7.22406 12.2024 7.56735 12.5643 8.03058 12.5747C8.05954 12.5747 8.08849 12.5767 8.11744 12.5809C8.04506 12.5705 7.97061 12.5602 7.89823 12.5519C7.96441 12.5622 8.02438 12.5767 8.08642 12.6015C8.02025 12.5747 7.95407 12.5457 7.88789 12.5188C7.9458 12.5457 7.99956 12.5767 8.05127 12.616C7.99543 12.5726 7.93959 12.5292 7.88376 12.4857C7.92512 12.5209 7.96234 12.5581 7.9975 12.5995C7.95407 12.5436 7.91064 12.4878 7.86721 12.432C7.9065 12.4837 7.93752 12.5354 7.96441 12.5953C7.93752 12.5292 7.90857 12.463 7.88169 12.3968C7.9065 12.4588 7.92305 12.5188 7.93132 12.585C7.92098 12.5126 7.91064 12.4382 7.90237 12.3658C7.92305 12.5705 7.90857 12.7815 7.90857 12.9862C7.90857 13.4412 7.90857 13.8961 7.90857 14.349C7.90857 15.3747 7.90857 16.4025 7.90857 17.4283C7.90857 17.6764 7.92925 17.9349 7.90237 18.1831C7.91271 18.1107 7.92305 18.0363 7.93132 17.9639C7.92098 18.0301 7.9065 18.09 7.88169 18.1521C7.90857 18.0859 7.93752 18.0197 7.96441 17.9536C7.93752 18.0115 7.9065 18.0652 7.86721 18.1169C7.91064 18.0611 7.95407 18.0053 7.9975 17.9494C7.96234 17.9908 7.92512 18.028 7.88376 18.0632C7.93959 18.0197 7.99543 17.9763 8.05127 17.9329C7.99956 17.9722 7.94786 18.0032 7.88789 18.0301C7.95407 18.0032 8.02025 17.9742 8.08642 17.9474C8.02438 17.9722 7.96441 17.9887 7.89823 17.997C7.97061 17.9867 8.04506 17.9763 8.11744 17.968C7.91271 17.9887 7.70177 17.9742 7.49704 17.9742C7.04207 17.9742 6.58711 17.9742 6.13422 17.9742C5.10848 17.9742 4.08068 17.9742 3.05494 17.9742C2.80678 17.9742 2.54828 17.9949 2.30012 17.968C2.3725 17.9784 2.44695 17.9887 2.51933 17.997C2.45315 17.9867 2.39318 17.9722 2.33114 17.9474C2.39731 17.9742 2.46349 18.0032 2.52967 18.0301C2.47176 18.0032 2.41799 17.9722 2.36629 17.9329C2.42213 17.9763 2.47797 18.0197 2.5338 18.0632C2.49244 18.028 2.45522 17.9908 2.42006 17.9494C2.46349 18.0053 2.50692 18.0611 2.55035 18.1169C2.51105 18.0652 2.48003 18.0135 2.45315 17.9536C2.48003 18.0197 2.50899 18.0859 2.53587 18.1521C2.51105 18.09 2.49451 18.0301 2.48624 17.9639C2.49658 18.0363 2.50692 18.1107 2.51519 18.1831C2.49451 17.9784 2.50899 17.7674 2.50899 17.5627C2.50899 17.1077 2.50899 16.6528 2.50899 16.1999C2.50899 15.1741 2.50899 14.1463 2.50899 13.1206C2.50899 12.8724 2.48831 12.6139 2.51519 12.3658C2.50485 12.4382 2.49451 12.5126 2.48624 12.585C2.49658 12.5188 2.51105 12.4588 2.53587 12.3968C2.50899 12.463 2.48003 12.5292 2.45315 12.5953C2.48003 12.5374 2.51105 12.4837 2.55035 12.432C2.50692 12.4878 2.46349 12.5436 2.42006 12.5995C2.45522 12.5581 2.49244 12.5209 2.5338 12.4857C2.47797 12.5292 2.42213 12.5726 2.36629 12.616C2.41799 12.5767 2.46969 12.5457 2.52967 12.5188C2.46349 12.5457 2.39731 12.5747 2.33114 12.6015C2.39318 12.5767 2.45315 12.5602 2.51933 12.5519C2.44695 12.5622 2.3725 12.5726 2.30012 12.5809C2.50485 12.5602 2.71579 12.5747 2.92052 12.5747C3.36514 12.5747 3.80977 12.5747 4.25439 12.5747C5.27599 12.5747 6.29759 12.5747 7.32126 12.5747C7.55908 12.5747 7.79483 12.5747 8.03265 12.5747C8.46487 12.5747 8.88054 12.1941 8.85986 11.7474C8.83918 11.2987 8.49589 10.9202 8.03058 10.9202ZM11.7406 3.64703C12.026 3.64703 12.3093 3.64703 12.5947 3.64703C13.2771 3.64703 13.9617 3.64703 14.6441 3.64703C15.4672 3.64703 16.2902 3.64703 17.1133 3.64703C17.8288 3.64703 18.5423 3.64703 19.2578 3.64703C19.6053 3.64703 19.9527 3.65324 20.3001 3.64703C20.3043 3.64703 20.3105 3.64703 20.3146 3.64703C20.7468 3.64703 21.1625 3.26652 21.1418 2.81983C21.1211 2.37107 20.7778 1.99262 20.3146 1.99262C20.0292 1.99262 19.7459 1.99262 19.4605 1.99262C18.7781 1.99262 18.0935 1.99262 17.4111 1.99262C16.588 1.99262 15.765 1.99262 14.9419 1.99262C14.2264 1.99262 13.5129 1.99262 12.7974 1.99262C12.4499 1.99262 12.1025 1.98642 11.7551 1.99262C11.7509 1.99262 11.7447 1.99262 11.7406 1.99262C11.3084 1.99262 10.8927 2.37314 10.9134 2.81983C10.932 3.26652 11.2774 3.64703 11.7406 3.64703ZM17.0678 5.80604C16.4681 5.80604 15.8684 5.80604 15.2666 5.80604C14.3091 5.80604 13.3537 5.80604 12.3962 5.80604C12.177 5.80604 11.9577 5.80604 11.7385 5.80604C11.3063 5.80604 10.8906 6.18656 10.9113 6.63325C10.932 7.08201 11.2753 7.46045 11.7385 7.46045C12.3383 7.46045 12.938 7.46045 13.5398 7.46045C14.4973 7.46045 15.4527 7.46045 16.4102 7.46045C16.6294 7.46045 16.8486 7.46045 17.0678 7.46045C17.5 7.46045 17.9157 7.07994 17.895 6.63325C17.8764 6.18449 17.5331 5.80604 17.0678 5.80604ZM11.7406 14.1939C12.026 14.1939 12.3093 14.1939 12.5947 14.1939C13.2771 14.1939 13.9617 14.1939 14.6441 14.1939C15.4672 14.1939 16.2902 14.1939 17.1133 14.1939C17.8288 14.1939 18.5423 14.1939 19.2578 14.1939C19.6053 14.1939 19.9527 14.2001 20.3001 14.1939C20.3043 14.1939 20.3105 14.1939 20.3146 14.1939C20.7468 14.1939 21.1625 13.8134 21.1418 13.3667C21.1211 12.9179 20.7778 12.5395 20.3146 12.5395C20.0292 12.5395 19.7459 12.5395 19.4605 12.5395C18.7781 12.5395 18.0935 12.5395 17.4111 12.5395C16.588 12.5395 15.765 12.5395 14.9419 12.5395C14.2264 12.5395 13.5129 12.5395 12.7974 12.5395C12.4499 12.5395 12.1025 12.5333 11.7551 12.5395C11.7509 12.5395 11.7447 12.5395 11.7406 12.5395C11.3084 12.5395 10.8927 12.92 10.9134 13.3667C10.932 13.8155 11.2774 14.1939 11.7406 14.1939ZM17.0678 16.3529C16.4681 16.3529 15.8684 16.3529 15.2666 16.3529C14.3091 16.3529 13.3537 16.3529 12.3962 16.3529C12.177 16.3529 11.9577 16.3529 11.7385 16.3529C11.3063 16.3529 10.8906 16.7334 10.9113 17.1801C10.932 17.6289 11.2753 18.0073 11.7385 18.0073C12.3383 18.0073 12.938 18.0073 13.5398 18.0073C14.4973 18.0073 15.4527 18.0073 16.4102 18.0073C16.6294 18.0073 16.8486 18.0073 17.0678 18.0073C17.5 18.0073 17.9157 17.6268 17.895 17.1801C17.8764 16.7334 17.5331 16.3529 17.0678 16.3529Z" fill="#8A96B1"/>
</svg>
