<svg width="32" height="32" viewBox="0 0 32 32" fill="none" xmlns="http://www.w3.org/2000/svg">
<path d="M28.0001 6.66666H4.00008C3.64646 6.66666 3.30732 6.80714 3.05727 7.05719C2.80722 7.30724 2.66675 7.64638 2.66675 8C2.66675 8.35362 2.80722 8.69276 3.05727 8.94281C3.30732 9.19285 3.64646 9.33333 4.00008 9.33333H6.66675V25.3333C6.66659 25.8587 6.76995 26.3789 6.97091 26.8643C7.17187 27.3496 7.4665 27.7906 7.83797 28.1621C8.20944 28.5336 8.65045 28.8282 9.13583 29.0292C9.6212 29.2301 10.1414 29.3335 10.6667 29.3333H21.3334C21.8588 29.3335 22.379 29.2302 22.8644 29.0292C23.3498 28.8283 23.7908 28.5337 24.1623 28.1622C24.5337 27.7907 24.8284 27.3497 25.0293 26.8643C25.2303 26.3789 25.3336 25.8587 25.3334 25.3333V9.33333H28.0001C28.3537 9.33333 28.6928 9.19285 28.9429 8.94281C29.1929 8.69276 29.3334 8.35362 29.3334 8C29.3334 7.64638 29.1929 7.30724 28.9429 7.05719C28.6928 6.80714 28.3537 6.66666 28.0001 6.66666ZM22.6667 25.3333C22.6663 25.6868 22.5256 26.0257 22.2757 26.2756C22.0257 26.5255 21.6869 26.6662 21.3334 26.6667H10.6667C10.3133 26.6662 9.97443 26.5255 9.72448 26.2756C9.47454 26.0257 9.33391 25.6868 9.33342 25.3333V9.33333H22.6667V25.3333ZM13.3334 5.33333H18.6667C19.0204 5.33333 19.3595 5.19286 19.6096 4.94281C19.8596 4.69276 20.0001 4.35362 20.0001 4C20.0001 3.64638 19.8596 3.30724 19.6096 3.05719C19.3595 2.80714 19.0204 2.66666 18.6667 2.66666H13.3334C12.9798 2.66666 12.6407 2.80714 12.3906 3.05719C12.1406 3.30724 12.0001 3.64638 12.0001 4C12.0001 4.35362 12.1406 4.69276 12.3906 4.94281C12.6407 5.19286 12.9798 5.33333 13.3334 5.33333Z" fill="#8A96B1"/>
<path d="M14.6667 21.3333V14.6667C14.6667 14.313 14.5262 13.9739 14.2761 13.7239C14.0261 13.4738 13.687 13.3333 13.3333 13.3333C12.9797 13.3333 12.6406 13.4738 12.3905 13.7239C12.1405 13.9739 12 14.313 12 14.6667V21.3333C12 21.687 12.1405 22.0261 12.3905 22.2761C12.6406 22.5262 12.9797 22.6667 13.3333 22.6667C13.687 22.6667 14.0261 22.5262 14.2761 22.2761C14.5262 22.0261 14.6667 21.687 14.6667 21.3333ZM20 21.3333V14.6667C20 14.313 19.8595 13.9739 19.6095 13.7239C19.3594 13.4738 19.0203 13.3333 18.6667 13.3333C18.313 13.3333 17.9739 13.4738 17.7239 13.7239C17.4738 13.9739 17.3333 14.313 17.3333 14.6667V21.3333C17.3333 21.687 17.4738 22.0261 17.7239 22.2761C17.9739 22.5262 18.313 22.6667 18.6667 22.6667C19.0203 22.6667 19.3594 22.5262 19.6095 22.2761C19.8595 22.0261 20 21.687 20 21.3333Z" fill="#8A96B1"/>
</svg>
