<svg width="18" height="18" viewBox="0 0 18 18" fill="none" xmlns="http://www.w3.org/2000/svg">
<path d="M9 18C4.05 18 0 13.95 0 9C0 4.05 4.05 0 9 0C13.95 0 18 4.05 18 9C18 13.95 13.95 18 9 18ZM9 1.875C5.1 1.875 1.875 5.1 1.875 9C1.875 12.9 5.1 16.125 9 16.125C12.9 16.125 16.125 12.9 16.125 9C16.125 5.1 12.9 1.875 9 1.875Z" fill="#5149E4"/>
<path d="M7.57539 12.5251C7.35039 12.5251 7.05039 12.4501 6.90039 12.2251L5.02539 10.3501C4.65039 9.97508 4.65039 9.37509 5.02539 9.00009C5.40039 8.62509 6.00039 8.62509 6.37539 9.00009L7.57539 10.2001L11.6254 6.15009C12.0004 5.77509 12.6004 5.77509 12.9754 6.15009C13.3504 6.52509 13.3504 7.12509 12.9754 7.50009L8.25039 12.2251C8.02539 12.4501 7.80039 12.5251 7.57539 12.5251Z" fill="#5149E4"/>
</svg>
