<svg width="20" height="20" viewBox="0 0 20 20" fill="none" xmlns="http://www.w3.org/2000/svg">
<path d="M18 16.4039H8.66671C8.33502 16.4056 8.01462 16.2836 7.76807 16.0617C7.52153 15.8398 7.36654 15.534 7.33338 15.2039L7.76004 10.8039L11.6934 9.73726C12.047 9.64179 12.3482 9.40974 12.5307 9.09218C12.7133 8.77462 12.7622 8.39755 12.6667 8.04393C12.5712 7.69031 12.3392 7.3891 12.0216 7.20656C11.7041 7.02403 11.327 6.97512 10.9734 7.0706L8.05338 7.89726L8.66671 1.8706C8.70207 1.51698 8.59551 1.16379 8.37047 0.888737C8.14542 0.613684 7.82033 0.439294 7.46671 0.403932C7.11309 0.36857 6.7599 0.475132 6.48485 0.700176C6.20979 0.925219 6.0354 1.25031 6.00004 1.60393L5.29338 8.73726L1.64004 9.73726C1.28642 9.785 0.966246 9.97126 0.749954 10.2551C0.533663 10.5389 0.438971 10.897 0.48671 11.2506C0.534449 11.6042 0.720708 11.9244 1.00451 12.1407C1.28832 12.357 1.64642 12.4517 2.00004 12.4039C2.11926 12.4233 2.24083 12.4233 2.36004 12.4039L5.02671 11.6439L4.66671 15.0706C4.66671 16.1315 5.08814 17.1489 5.83828 17.899C6.58843 18.6492 7.60584 19.0706 8.66671 19.0706H18C18.3537 19.0706 18.6928 18.9301 18.9429 18.6801C19.1929 18.43 19.3334 18.0909 19.3334 17.7373C19.3334 17.3836 19.1929 17.0445 18.9429 16.7945C18.6928 16.5444 18.3537 16.4039 18 16.4039Z" fill="white"/>
</svg>
