<svg width="18" height="18" viewBox="0 0 18 18" fill="none" xmlns="http://www.w3.org/2000/svg">
<path d="M9.00002 0C7.21998 0 5.47992 0.527842 3.99988 1.51678C2.51983 2.50571 1.36628 3.91132 0.685089 5.55586C0.00389956 7.2004 -0.174331 9.01 0.172937 10.7558C0.520204 12.5017 1.37737 14.1053 2.63605 15.364C3.89472 16.6227 5.49837 17.4798 7.2442 17.8271C8.99004 18.1744 10.7996 17.9961 12.4442 17.3149C14.0887 16.6338 15.4943 15.4802 16.4833 14.0002C17.4722 12.5201 18 10.7801 18 9.00002C18 7.81812 17.7672 6.64779 17.3149 5.55586C16.8627 4.46393 16.1997 3.47177 15.364 2.63604C14.5283 1.80032 13.5361 1.13738 12.4442 0.685085C11.3522 0.232792 10.1819 0 9.00002 0ZM9.00002 16.2C7.57599 16.2 6.18394 15.7778 4.99991 14.9866C3.81587 14.1955 2.89303 13.071 2.34808 11.7553C1.80312 10.4397 1.66054 8.99203 1.93835 7.59536C2.21617 6.1987 2.9019 4.91578 3.90884 3.90884C4.91578 2.9019 6.1987 2.21616 7.59537 1.93835C8.99203 1.66054 10.4397 1.80312 11.7553 2.34807C13.071 2.89302 14.1955 3.81587 14.9866 4.9999C15.7778 6.18394 16.2 7.57599 16.2 9.00002C16.2 10.9096 15.4415 12.7409 14.0912 14.0912C12.7409 15.4415 10.9096 16.2 9.00002 16.2Z" fill="#5149E4"/>
<path d="M9.00014 4.50006C8.76144 4.50006 8.53252 4.59488 8.36374 4.76367C8.19496 4.93245 8.10014 5.16137 8.10014 5.40006V9.90007C8.10014 10.1388 8.19496 10.3677 8.36374 10.5365C8.53252 10.7052 8.76144 10.8001 9.00014 10.8001C9.23883 10.8001 9.46775 10.7052 9.63654 10.5365C9.80532 10.3677 9.90014 10.1388 9.90014 9.90007V5.40006C9.90014 5.16137 9.80532 4.93245 9.63654 4.76367C9.46775 4.59488 9.23883 4.50006 9.00014 4.50006ZM9.63914 11.9791L9.50414 11.8621L9.34214 11.7811L9.17114 11.7001C9.02581 11.6723 8.87587 11.6807 8.73459 11.7247C8.5933 11.7686 8.46503 11.8467 8.36114 11.9521C8.28018 12.035 8.21601 12.1328 8.17214 12.2401C8.12027 12.3528 8.09561 12.4761 8.10014 12.6001C8.10113 12.8362 8.19487 13.0624 8.36114 13.2301C8.44836 13.3122 8.54876 13.3792 8.65814 13.4281C8.76587 13.4757 8.88236 13.5003 9.00014 13.5003C9.11792 13.5003 9.23441 13.4757 9.34214 13.4281C9.45152 13.3792 9.55191 13.3122 9.63914 13.2301C9.80541 13.0624 9.89915 12.8362 9.90014 12.6001C9.89991 12.4794 9.87542 12.3601 9.82814 12.2491C9.7823 12.1482 9.71822 12.0567 9.63914 11.9791Z" fill="#5149E4"/>
</svg>
