<svg width="16" height="18" viewBox="0 0 16 18" fill="none" xmlns="http://www.w3.org/2000/svg">
<path d="M15 18H13C12.7348 18 12.4804 17.8946 12.2929 17.7071C12.1054 17.5196 12 17.2652 12 17C12 16.7348 12.1054 16.4804 12.2929 16.2929C12.4804 16.1053 12.7348 16 13 16H14V12.88C13.9966 12.6014 13.933 12.3269 13.8135 12.0753C13.694 11.8236 13.5214 11.6008 13.3076 11.4222C13.0939 11.2436 12.8439 11.1134 12.5751 11.0405C12.3062 10.9676 12.0247 10.9538 11.75 11L8.67 13.76C8.48625 13.9258 8.24752 14.0176 8 14.0176C7.75248 14.0176 7.51375 13.9258 7.33 13.76L4.25 11C3.97528 10.9538 3.69381 10.9676 3.42493 11.0405C3.15605 11.1134 2.90614 11.2436 2.69236 11.4222C2.47859 11.6008 2.30601 11.8236 2.18649 12.0753C2.06698 12.3269 2.00336 12.6014 2 12.88V16H9C9.26522 16 9.51957 16.1053 9.70711 16.2929C9.89464 16.4804 10 16.7348 10 17C10 17.2652 9.89464 17.5196 9.70711 17.7071C9.51957 17.8946 9.26522 18 9 18H1C0.734784 18 0.48043 17.8946 0.292893 17.7071C0.105357 17.5196 0 17.2652 0 17V12.88C0.00226724 12.2734 0.14458 11.6755 0.415849 11.1329C0.687117 10.5903 1.08001 10.1176 1.56392 9.75179C2.04783 9.38595 2.60967 9.1368 3.20568 9.02374C3.80168 8.91068 4.41574 8.93678 5 9.09999C5.14305 9.1473 5.27552 9.22202 5.39 9.31999L8 11.66L10.6 9.31999C10.7174 9.22088 10.8534 9.1461 11 9.09999C11.5843 8.93678 12.1983 8.91068 12.7943 9.02374C13.3903 9.1368 13.9522 9.38595 14.4361 9.75179C14.92 10.1176 15.3129 10.5903 15.5842 11.1329C15.8554 11.6755 15.9977 12.2734 16 12.88V17C16 17.2652 15.8946 17.5196 15.7071 17.7071C15.5196 17.8946 15.2652 18 15 18Z" fill="#8A96B1"/>
<path d="M8 10C7.0111 10 6.0444 9.70676 5.22215 9.15735C4.39991 8.60794 3.75904 7.82705 3.3806 6.91342C3.00217 5.99979 2.90315 4.99446 3.09608 4.02455C3.289 3.05465 3.76521 2.16373 4.46447 1.46447C5.16373 0.765206 6.05465 0.289002 7.02455 0.0960759C7.99446 -0.0968503 8.99979 0.00216642 9.91342 0.380605C10.8271 0.759043 11.6079 1.39991 12.1574 2.22215C12.7068 3.0444 13 4.0111 13 5C13 6.32609 12.4732 7.59785 11.5355 8.53554C10.5979 9.47322 9.32609 10 8 10ZM8 2C7.40666 2 6.82664 2.17595 6.33329 2.50559C5.83994 2.83524 5.45543 3.30377 5.22836 3.85195C5.0013 4.40013 4.94189 5.00333 5.05765 5.58527C5.1734 6.16722 5.45912 6.70177 5.87868 7.12132C6.29824 7.54088 6.83279 7.8266 7.41473 7.94236C7.99668 8.05811 8.59988 7.9987 9.14805 7.77164C9.69623 7.54458 10.1648 7.16006 10.4944 6.66671C10.8241 6.17337 11 5.59335 11 5C11 4.20435 10.6839 3.44129 10.1213 2.87868C9.55872 2.31607 8.79565 2 8 2Z" fill="#8A96B1"/>
</svg>
