<svg width="14" height="12" viewBox="0 0 14 12" fill="none" xmlns="http://www.w3.org/2000/svg">
<path fill-rule="evenodd" clip-rule="evenodd" d="M1.66634 2.30819V3.92597C1.66634 4.29411 1.36767 4.59278 0.999674 4.59278C0.631674 4.59278 0.333008 4.29411 0.333008 3.92597V1.33337C0.333008 1.11352 0.441674 0.90715 0.623008 0.783224C0.805008 0.65878 1.03634 0.632335 1.24101 0.712187L13.241 5.37886C13.4977 5.47841 13.6663 5.72523 13.6663 6.00004C13.6663 6.27486 13.4977 6.52167 13.241 6.62123L1.24101 11.2879C1.03634 11.3677 0.805008 11.3413 0.623008 11.2169C0.441674 11.0929 0.333008 10.8866 0.333008 10.6667C0.333008 10.6667 0.333008 8.71241 0.333008 7.33315C0.333008 6.22871 1.22834 5.33323 2.33301 5.33323H5.66634C6.03434 5.33323 6.33301 5.63189 6.33301 6.00004C6.33301 6.36819 6.03434 6.66686 5.66634 6.66686C5.66634 6.66686 3.71234 6.66686 2.33301 6.66686C1.96501 6.66686 1.66634 6.965 1.66634 7.33315V9.69189L11.1603 6.00004L1.66634 2.30819Z" fill="white"/>
</svg>
