<svg width="25" height="24" viewBox="0 0 25 24" fill="none" xmlns="http://www.w3.org/2000/svg">
<path d="M11.281 9.33333H14.6676C15.0213 9.33333 15.3604 9.19286 15.6104 8.94281C15.8605 8.69276 16.001 8.35362 16.001 8C16.001 7.64638 15.8605 7.30724 15.6104 7.05719C15.3604 6.80714 15.0213 6.66667 14.6676 6.66667H13.3343V5.33333C13.3343 4.97971 13.1938 4.64057 12.9438 4.39052C12.6937 4.14048 12.3546 4 12.001 4C11.6473 4 11.3082 4.14048 11.0582 4.39052C10.8081 4.64057 10.6676 4.97971 10.6676 5.33333V6.66667C10.6676 6.66667 10.6676 6.66667 10.6676 6.73333C9.86166 6.89655 9.14446 7.35193 8.65392 8.01194C8.16337 8.67194 7.93411 9.48998 8.0102 10.3088C8.08629 11.1276 8.46237 11.8894 9.06613 12.4477C9.66989 13.006 10.4587 13.3214 11.281 13.3333H12.721C12.8093 13.3383 12.8956 13.3611 12.9749 13.4004C13.0541 13.4397 13.1245 13.4947 13.1818 13.562C13.2392 13.6293 13.2823 13.7076 13.3085 13.792C13.3347 13.8765 13.3435 13.9654 13.3343 14.0533C13.3309 14.2149 13.2652 14.369 13.1509 14.4833C13.0366 14.5976 12.8826 14.6633 12.721 14.6667H9.3343C8.98068 14.6667 8.64154 14.8071 8.39149 15.0572C8.14144 15.3072 8.00097 15.6464 8.00097 16C8.00097 16.3536 8.14144 16.6928 8.39149 16.9428C8.64154 17.1929 8.98068 17.3333 9.3343 17.3333H10.6676V18.6667C10.6676 19.0203 10.8081 19.3594 11.0582 19.6095C11.3082 19.8595 11.6473 20 12.001 20C12.3546 20 12.6937 19.8595 12.9438 19.6095C13.1938 19.3594 13.3343 19.0203 13.3343 18.6667V17.3333C13.3343 17.3333 13.3343 17.3333 13.3343 17.2667C14.1403 17.1034 14.8575 16.6481 15.348 15.9881C15.8386 15.3281 16.0678 14.51 15.9917 13.6912C15.9156 12.8724 15.5396 12.1106 14.9358 11.5523C14.3321 10.994 13.5432 10.6786 12.721 10.6667H11.281C11.1927 10.6617 11.1063 10.6389 11.0271 10.5996C10.9479 10.5603 10.8775 10.5053 10.8201 10.438C10.7628 10.3707 10.7197 10.2924 10.6935 10.208C10.6673 10.1235 10.6585 10.0346 10.6676 9.94667C10.671 9.78507 10.7368 9.63103 10.851 9.51674C10.9653 9.40245 11.1194 9.33674 11.281 9.33333Z" fill="white"/>
<path d="M12.0006 -2.65985e-05C9.99232 0.000502664 8.01626 0.505069 6.25353 1.46743C4.49081 2.42979 2.99781 3.81917 1.91136 5.50824C0.824904 7.19731 0.179746 9.13204 0.035007 11.1351C-0.109732 13.1382 0.250579 15.1456 1.08292 16.9733C1.91526 18.801 3.19301 20.3906 4.79906 21.5964C6.40512 22.8022 8.28812 23.5856 10.2755 23.8749C12.2629 24.1641 14.2911 23.9499 16.1742 23.252C18.0573 22.554 19.7352 21.3946 21.054 19.88C21.2874 19.613 21.4051 19.2642 21.3814 18.9104C21.3576 18.5566 21.1943 18.2267 20.9273 17.9933C20.6603 17.7599 20.3116 17.6421 19.9577 17.6659C19.6039 17.6897 19.274 17.853 19.0406 18.12C17.6045 19.7699 15.6346 20.863 13.4746 21.2084C11.3147 21.5539 9.10208 21.1297 7.22302 20.01C5.34395 18.8903 3.91785 17.1462 3.19366 15.0822C2.46948 13.0182 2.49324 10.7654 3.26079 8.71714C4.02834 6.66886 5.49091 4.95523 7.39317 3.87541C9.29542 2.7956 11.5165 2.41821 13.6687 2.80913C15.8208 3.20005 17.7673 4.33444 19.1683 6.01426C20.5693 7.69408 21.3358 9.81261 21.334 12C21.3364 12.5998 21.2783 13.1984 21.1606 13.7866C21.0935 14.1403 21.1695 14.5061 21.372 14.8036C21.5746 15.1012 21.887 15.3061 22.2406 15.3733C22.5943 15.4405 22.9601 15.3645 23.2576 15.1619C23.5552 14.9594 23.7601 14.6469 23.8273 14.2933C24.1664 12.5517 24.1151 10.7566 23.677 9.0372C23.239 7.31782 22.4251 5.71697 21.294 4.34995C20.1629 2.98292 18.7427 1.88374 17.1357 1.13155C15.5287 0.379367 13.7749 -0.00710377 12.0006 -2.65985e-05Z" fill="white"/>
</svg>
