<svg width="20" height="26" viewBox="0 0 20 26" fill="none" xmlns="http://www.w3.org/2000/svg">
<path d="M20 20V23C20 23.7956 19.6839 24.5587 19.1213 25.1213C18.5587 25.6839 17.7956 26 17 26H3C2.20435 26 1.44129 25.6839 0.87868 25.1213C0.316071 24.5587 0 23.7956 0 23V3C0 2.20435 0.316071 1.44129 0.87868 0.87868C1.44129 0.316071 2.20435 0 3 0H6C6.26522 0 6.51957 0.105357 6.70711 0.292893C6.89464 0.48043 7 0.734784 7 1C7 1.26522 6.89464 1.51957 6.70711 1.70711C6.51957 1.89464 6.26522 2 6 2H3C2.73478 2 2.48043 2.10536 2.29289 2.29289C2.10536 2.48043 2 2.73478 2 3V23C2 23.2652 2.10536 23.5196 2.29289 23.7071C2.48043 23.8946 2.73478 24 3 24H17C17.2652 24 17.5196 23.8946 17.7071 23.7071C17.8946 23.5196 18 23.2652 18 23V20C18 19.7348 18.1054 19.4804 18.2929 19.2929C18.4804 19.1054 18.7348 19 19 19C19.2652 19 19.5196 19.1054 19.7071 19.2929C19.8946 19.4804 20 19.7348 20 20ZM20 9V15C20 15.2652 19.8946 15.5196 19.7071 15.7071C19.5196 15.8946 19.2652 16 19 16C18.7348 16 18.4804 15.8946 18.2929 15.7071C18.1054 15.5196 18 15.2652 18 15V10H13C12.2044 10 11.4413 9.68393 10.8787 9.12132C10.3161 8.55871 10 7.79565 10 7V1C10.0016 0.869323 10.0288 0.740222 10.08 0.62C10.1815 0.375651 10.3757 0.181475 10.62 0.0799999C10.8635 -0.0200181 11.1365 -0.0200181 11.38 0.0799999C11.5028 0.127594 11.6149 0.198959 11.71 0.29L19.71 8.29C19.801 8.3851 19.8724 8.49725 19.92 8.62C19.9712 8.74022 19.9984 8.86932 20 9ZM13 8H16.59L12 3.41V7C12 7.26522 12.1054 7.51957 12.2929 7.70711C12.4804 7.89464 12.7348 8 13 8Z" fill="white"/>
</svg>
